<svg aria-hidden="true" style="position: absolute; width: 0; height: 0; overflow: hidden;" version="1.1" xmlns="http://www.w3.org/2000/svg" xmlns:xlink="http://www.w3.org/1999/xlink">
<defs>
<symbol id="icon-group-3" viewBox="0 0 36 32">
<path fill="#103e13" style="fill: var(--color1, #103e13)" d="M22.732 15.621c-0.257 0-0.495-0.071-0.707-0.184v0.003c0 0.404-0.157 0.784-0.442 1.068s-0.664 0.442-1.068 0.442c-0.261 0-0.502-0.072-0.716-0.189-0.022 0.37-0.169 0.715-0.433 0.979-0.285 0.285-0.664 0.442-1.068 0.442-0.802 0-1.454-0.631-1.501-1.421-0.248 0.134-0.529 0.204-0.819 0.186-0.789-0.052-1.408-0.734-1.408-1.553v-6.791l-0.773 1.34c-0.294 0.512-0.846 0.831-1.439 0.831-0.289 0-0.575-0.076-0.828-0.221-0.315-0.183-0.54-0.476-0.634-0.827s-0.046-0.718 0.137-1.033c0 0 2.53-4.381 2.684-4.65 0.018-0.040 0.071-0.158 0.115-0.258 0.043-0.095 0.079-0.194 0.114-0.292 0.763-2.154 2.652-3.492 4.93-3.492 2.959 0 5.366 2.61 5.366 5.818l0 8.293c0 0.404-0.157 0.783-0.442 1.068s-0.664 0.442-1.068 0.442l0-0zM18.876 0.802c-1.958 0-3.518 1.106-4.174 2.958-0.042 0.118-0.086 0.235-0.137 0.35-0.148 0.332-0.148 0.332-0.19 0.38l-0.006-0.005c-0.207 0.39-0.82 1.453-2.643 4.608-0.075 0.129-0.095 0.28-0.057 0.423s0.131 0.265 0.26 0.339c0.399 0.229 0.944 0.081 1.172-0.315l1.523-2.636c0.091-0.157 0.275-0.234 0.451-0.186 0.175 0.047 0.297 0.206 0.297 0.388v8.287c0 0.391 0.295 0.729 0.658 0.752 0.209 0.011 0.404-0.059 0.551-0.205 0.133-0.133 0.206-0.311 0.206-0.5v-5.42c0-0.222 0.18-0.401 0.401-0.401s0.401 0.179 0.401 0.401l-0 6.652c0 0.39 0.317 0.707 0.707 0.707 0.189 0 0.367-0.073 0.501-0.207s0.206-0.311 0.206-0.501v-6.652c0-0.222 0.179-0.401 0.401-0.401s0.401 0.179 0.401 0.401l-0 5.358v0.062c0 0.39 0.317 0.707 0.708 0.707 0.189 0 0.367-0.074 0.501-0.207 0.133-0.133 0.206-0.31 0.206-0.5v-5.42c0-0.222 0.18-0.401 0.401-0.401s0.401 0.179 0.401 0.401l-0 4.091c0 0.39 0.317 0.708 0.707 0.708 0.19 0 0.367-0.074 0.5-0.207s0.207-0.312 0.207-0.501l0-8.293c0-2.766-2.047-5.016-4.563-5.016v-0z"></path>
<path fill="#103e13" style="fill: var(--color1, #103e13)" d="M6.964 21.385l5.824-3.494c0.702-0.422 1.606-0.242 2.056 0.408 0.164 0.237 0.248 0.513 0.261 0.794 0.217-0.113 0.453-0.175 0.694-0.175 0.123 0 0.247 0.015 0.369 0.046 0.391 0.098 0.721 0.342 0.928 0.688s0.268 0.752 0.17 1.143c-0.090 0.362-0.31 0.666-0.616 0.875 0.214 0.126 0.398 0.298 0.529 0.517 0.208 0.346 0.268 0.752 0.171 1.143s-0.342 0.721-0.689 0.928l-0.002 0.001c0.21 0.126 0.391 0.296 0.521 0.512 0.208 0.346 0.268 0.752 0.171 1.143s-0.343 0.721-0.688 0.928l-7.111 4.266c-1.327 0.796-2.861 1.071-4.319 0.773-1.471-0.301-2.689-1.146-3.43-2.381-1.172-1.954-0.997-4.262 0.458-6.024 0.067-0.080 0.132-0.162 0.192-0.247 0.063-0.090 0.137-0.195 0.162-0.231 0.151-0.269 2.607-4.694 2.607-4.694 0.248-0.448 0.713-0.701 1.192-0.701 0.224 0 0.451 0.055 0.66 0.171 0.253 0.141 0.465 0.347 0.614 0.595 0.305 0.509 0.316 1.146 0.029 1.661l-0.751 1.353zM6.999 18.783c-0.078-0.13-0.185-0.233-0.316-0.307-0.271-0.15-0.611-0.052-0.76 0.217-1.758 3.166-2.357 4.246-2.588 4.63l0.005 0.001c-0.019 0.064-0.019 0.064-0.231 0.367-0.072 0.102-0.15 0.201-0.23 0.297-1.251 1.515-1.396 3.422-0.389 5.101 0.624 1.040 1.655 1.753 2.903 2.008 1.262 0.257 2.592 0.018 3.746-0.675l7.112-4.266c0.162-0.097 0.277-0.252 0.323-0.435s0.017-0.373-0.080-0.536c-0.201-0.334-0.636-0.444-0.97-0.243l-3.508 2.105c-0.19 0.114-0.437 0.053-0.551-0.137s-0.052-0.436 0.137-0.551l4.648-2.788c0.162-0.098 0.277-0.252 0.323-0.435s0.017-0.374-0.080-0.536c-0.201-0.334-0.636-0.443-0.97-0.243l-4.648 2.788c-0.19 0.114-0.436 0.053-0.551-0.137s-0.052-0.437 0.137-0.551l5.704-3.422c0.162-0.098 0.277-0.252 0.323-0.435s0.017-0.373-0.080-0.535c-0.097-0.162-0.252-0.277-0.435-0.322s-0.374-0.017-0.535 0.080l-1.056 0.634c-0 0-0 0-0.001 0h-0l-4.648 2.788c-0.191 0.115-0.437 0.053-0.551-0.137s-0.052-0.437 0.137-0.551l4.648-2.788c0.162-0.098 0.277-0.252 0.323-0.435 0.050-0.201 0.012-0.406-0.107-0.578-0.207-0.299-0.648-0.378-0.983-0.177l-7.106 4.263c-0.156 0.093-0.355 0.070-0.485-0.056s-0.16-0.324-0.072-0.483l1.478-2.662c0.148-0.266 0.143-0.595-0.016-0.858l0-0z"></path>
<path fill="#103e13" style="fill: var(--color1, #103e13)" d="M34.793 29.502c-0.741 1.235-1.959 2.081-3.43 2.381-1.458 0.297-2.992 0.023-4.319-0.773l-7.111-4.266c-0.346-0.208-0.591-0.537-0.689-0.929s-0.036-0.797 0.171-1.142c0.129-0.216 0.311-0.387 0.521-0.512l-0.002-0.001c-0.346-0.208-0.591-0.537-0.688-0.928s-0.037-0.797 0.17-1.143c0.134-0.222 0.317-0.396 0.526-0.52-0.304-0.209-0.522-0.512-0.612-0.872-0.098-0.391-0.037-0.797 0.17-1.143s0.537-0.591 0.928-0.688c0.122-0.031 0.246-0.046 0.369-0.046 0.241 0 0.477 0.061 0.694 0.175 0.013-0.281 0.097-0.557 0.261-0.794 0.451-0.65 1.353-0.83 2.056-0.408l5.823 3.493-0.751-1.352c-0.288-0.516-0.277-1.153 0.028-1.662 0.149-0.248 0.361-0.454 0.615-0.596 0.209-0.116 0.435-0.17 0.658-0.17 0.479 0 0.945 0.253 1.192 0.701 0.864 1.556 2.493 4.49 2.608 4.695 0.024 0.035 0.098 0.141 0.161 0.231 0.060 0.085 0.125 0.167 0.192 0.247 1.454 1.763 1.629 4.071 0.457 6.025v-0zM33.716 23.988c-0.080-0.097-0.158-0.196-0.23-0.297-0.217-0.308-0.223-0.316-0.239-0.397-0.254-0.42-0.873-1.535-2.575-4.601-0.149-0.269-0.489-0.367-0.759-0.218-0.133 0.074-0.24 0.178-0.318 0.308-0.158 0.263-0.164 0.592-0.015 0.859l1.477 2.662c0.088 0.159 0.059 0.357-0.072 0.483s-0.329 0.149-0.486 0.056l-7.106-4.263c-0.335-0.201-0.777-0.122-0.984 0.177-0.119 0.172-0.157 0.377-0.107 0.577 0.046 0.183 0.161 0.337 0.323 0.435 0 0 0.001 0.001 0.001 0.001l4.646 2.787c0.19 0.114 0.252 0.36 0.137 0.551s-0.36 0.252-0.551 0.137l-5.704-3.422c-0.162-0.097-0.352-0.126-0.535-0.080s-0.338 0.16-0.435 0.323c-0.098 0.162-0.126 0.352-0.080 0.535s0.161 0.337 0.323 0.435l5.704 3.422c0.19 0.114 0.252 0.36 0.137 0.551s-0.36 0.252-0.551 0.137l-4.647-2.788c-0.334-0.201-0.77-0.092-0.97 0.243-0.098 0.162-0.126 0.353-0.080 0.536s0.161 0.337 0.323 0.435l4.647 2.788c0.19 0.114 0.252 0.36 0.137 0.551s-0.36 0.252-0.551 0.137l-3.508-2.105c-0.162-0.097-0.352-0.126-0.535-0.080s-0.338 0.16-0.435 0.322c-0.097 0.162-0.126 0.353-0.080 0.535s0.161 0.337 0.323 0.435l7.111 4.266c1.154 0.692 2.485 0.932 3.746 0.675 1.248-0.255 2.279-0.968 2.903-2.008 1.008-1.679 0.863-3.586-0.387-5.101h-0z"></path>
</symbol>
<symbol id="icon-group-1" viewBox="0 0 57 32">
<path fill="#103e13" style="fill: var(--color1, #103e13)" d="M28.433 0c-4.233 0-7.678 3.477-7.678 7.728 0 2.689 1.381 5.063 3.466 6.447-2.518 0.842-4.697 2.416-6.296 4.475-0.884-0.68-1.871-1.226-2.935-1.618 1.614-1.198 2.669-3.123 2.669-5.287 0-3.605-2.916-6.556-6.499-6.556s-6.499 2.951-6.499 6.556c0 2.165 1.056 4.090 2.671 5.289-4.277 1.578-7.331 5.71-7.331 10.573v3.416c0 0.26 0.105 0.51 0.289 0.693s0.435 0.286 0.695 0.285h14.987c0.036 0.004 0.073 0.006 0.109 0.006h24.706c0.036 0 0.073-0.002 0.109-0.006h14.988c0.539-0.002 0.975-0.439 0.976-0.979v-3.416c0-4.863-3.049-8.995-7.324-10.573 1.615-1.198 2.671-3.124 2.671-5.289 0-3.605-2.916-6.556-6.499-6.556s-6.499 2.951-6.499 6.556c0 2.163 1.055 4.089 2.669 5.287-1.067 0.393-2.054 0.941-2.939 1.622-1.597-2.060-3.773-3.636-6.292-4.479 2.084-1.384 3.466-3.758 3.466-6.447 0-4.251-3.448-7.728-7.68-7.728h-0zM28.433 1.961c3.166 0 5.718 2.569 5.718 5.767 0 3.173-2.512 5.717-5.643 5.758-0.025 0-0.049-0.004-0.075-0.004s-0.049 0.004-0.075 0.004c-3.131-0.040-5.641-2.585-5.641-5.758 0-3.198 2.55-5.767 5.715-5.767h0zM11.159 7.15c2.512 0 4.538 2.039 4.538 4.595 0 2.54-2 4.57-4.488 4.597-0.017 0-0.033-0.002-0.050-0.002s-0.033 0.002-0.050 0.002c-2.488-0.027-4.488-2.058-4.488-4.597 0-2.557 2.026-4.595 4.538-4.595h0zM45.707 7.15c2.512 0 4.538 2.039 4.538 4.595 0 2.54-2 4.57-4.488 4.597-0.017 0-0.033-0.002-0.050-0.002s-0.033 0.002-0.050 0.002c-2.488-0.027-4.488-2.058-4.488-4.597 0-2.557 2.026-4.595 4.538-4.595v0zM28.357 15.446c0.025 0 0.050 0.004 0.075 0.004s0.049-0.004 0.075-0.004c6.278 0.040 11.303 5.108 11.303 11.452l-0 3.148h-22.753v-3.148c0-6.344 5.023-11.411 11.3-11.452h0.001zM11.084 18.305c0.025 0 0.049 0.003 0.075 0.003s0.049-0.003 0.075-0.003c2.123 0.017 4.061 0.749 5.605 1.974-1.104 1.954-1.743 4.209-1.743 6.619v3.14h-13.136v-2.432c0-5.156 4.054-9.261 9.124-9.302l0 0zM45.632 18.305c0.025 0 0.049 0.003 0.075 0.003s0.049-0.003 0.075-0.003c5.070 0.040 9.124 4.146 9.124 9.302v2.432h-13.142l-0-3.14c0-2.409-0.637-4.662-1.739-6.616 1.544-1.227 3.483-1.961 5.608-1.978h-0z"></path>
</symbol>
<symbol id="icon-group-2" viewBox="0 0 38 32">
<path fill="#103e13" style="fill: var(--color1, #103e13)" d="M22.107 10.334c-0.322 0-0.584-0.261-0.584-0.584v-0.992c0-0.322 0.261-0.584 0.584-0.584s0.584 0.261 0.584 0.584v0.992c0 0.322-0.262 0.584-0.584 0.584z"></path>
<path fill="#103e13" style="fill: var(--color1, #103e13)" d="M19.652 10.334c-0.322 0-0.584-0.261-0.584-0.584v-0.992c0-0.322 0.261-0.584 0.584-0.584s0.584 0.261 0.584 0.584v0.992c-0 0.322-0.261 0.584-0.584 0.584z"></path>
<path fill="#103e13" style="fill: var(--color1, #103e13)" d="M17.197 10.334c-0.322 0-0.584-0.261-0.584-0.584v-0.992c0-0.322 0.261-0.584 0.584-0.584s0.584 0.261 0.584 0.584v0.992c0 0.322-0.261 0.584-0.584 0.584z"></path>
<path fill="#103e13" style="fill: var(--color1, #103e13)" d="M22.107 14.392c-0.322 0-0.584-0.261-0.584-0.584v-0.992c0-0.322 0.261-0.584 0.584-0.584s0.584 0.261 0.584 0.584v0.992c0 0.323-0.262 0.584-0.584 0.584z"></path>
<path fill="#103e13" style="fill: var(--color1, #103e13)" d="M19.652 14.392c-0.322 0-0.584-0.261-0.584-0.584v-0.992c0-0.322 0.261-0.584 0.584-0.584s0.584 0.261 0.584 0.584v0.992c-0 0.323-0.261 0.584-0.584 0.584z"></path>
<path fill="#103e13" style="fill: var(--color1, #103e13)" d="M17.197 14.392c-0.322 0-0.584-0.261-0.584-0.584v-0.992c0-0.322 0.261-0.584 0.584-0.584s0.584 0.261 0.584 0.584v0.992c0 0.323-0.261 0.584-0.584 0.584z"></path>
<path fill="#103e13" style="fill: var(--color1, #103e13)" d="M22.107 18.45c-0.322 0-0.584-0.261-0.584-0.584v-0.992c0-0.322 0.261-0.584 0.584-0.584s0.584 0.261 0.584 0.584v0.992c0 0.323-0.262 0.584-0.584 0.584z"></path>
<path fill="#103e13" style="fill: var(--color1, #103e13)" d="M19.652 18.45c-0.322 0-0.584-0.261-0.584-0.584v-0.992c0-0.322 0.261-0.584 0.584-0.584s0.584 0.261 0.584 0.584v0.992c-0 0.323-0.261 0.584-0.584 0.584z"></path>
<path fill="#103e13" style="fill: var(--color1, #103e13)" d="M17.197 18.45c-0.322 0-0.584-0.261-0.584-0.584v-0.992c0-0.322 0.261-0.584 0.584-0.584s0.584 0.261 0.584 0.584v0.992c0 0.323-0.261 0.584-0.584 0.584z"></path>
<path fill="#103e13" style="fill: var(--color1, #103e13)" d="M22.107 22.507c-0.322 0-0.584-0.261-0.584-0.584v-0.992c0-0.322 0.261-0.584 0.584-0.584s0.584 0.261 0.584 0.584v0.992c0 0.322-0.262 0.584-0.584 0.584z"></path>
<path fill="#103e13" style="fill: var(--color1, #103e13)" d="M19.652 22.507c-0.322 0-0.584-0.261-0.584-0.584v-0.992c0-0.322 0.261-0.584 0.584-0.584s0.584 0.261 0.584 0.584v0.992c-0 0.322-0.261 0.584-0.584 0.584z"></path>
<path fill="#103e13" style="fill: var(--color1, #103e13)" d="M17.197 22.507c-0.322 0-0.584-0.261-0.584-0.584v-0.992c0-0.322 0.261-0.584 0.584-0.584s0.584 0.261 0.584 0.584v0.992c0 0.322-0.261 0.584-0.584 0.584z"></path>
<path fill="#103e13" style="fill: var(--color1, #103e13)" d="M22.107 26.565c-0.322 0-0.584-0.261-0.584-0.584v-0.992c0-0.322 0.261-0.584 0.584-0.584s0.584 0.261 0.584 0.584v0.992c0 0.322-0.262 0.584-0.584 0.584z"></path>
<path fill="#103e13" style="fill: var(--color1, #103e13)" d="M19.652 26.565c-0.322 0-0.584-0.261-0.584-0.584v-0.992c0-0.322 0.261-0.584 0.584-0.584s0.584 0.261 0.584 0.584v0.992c-0 0.322-0.261 0.584-0.584 0.584z"></path>
<path fill="#103e13" style="fill: var(--color1, #103e13)" d="M17.197 26.565c-0.322 0-0.584-0.261-0.584-0.584l0-0.992c0-0.322 0.261-0.584 0.584-0.584s0.584 0.261 0.584 0.584v0.992c-0 0.322-0.262 0.584-0.584 0.584z"></path>
<path fill="#103e13" style="fill: var(--color1, #103e13)" d="M0.517 30.603c0 0.322 0.261 0.584 0.584 0.584h35.559c0.322 0 0.584-0.261 0.584-0.584s-0.261-0.584-0.584-0.584h-1.079v-16.765c0-0.322-0.261-0.584-0.584-0.584l-9.534 0v-12.087c0-0.204-0.107-0.393-0.281-0.499s-0.391-0.113-0.572-0.019l-10.839 5.643c-0.193 0.101-0.314 0.3-0.314 0.518v10.558h-10.49c-0.322 0-0.584 0.261-0.584 0.584v12.651h-1.283c-0.322-0-0.583 0.261-0.583 0.583l0 0zM25.463 21.515h8.95v8.506l-8.95-0v-8.505zM25.463 17.457h8.95v2.89l-8.95-0v-2.89zM25.463 13.838h8.95v2.452h-8.95v-2.452zM14.624 6.582l9.671-5.035v28.473h-9.671v-23.437zM6.437 25.356c0-1.212 0.96-2.198 2.141-2.198s2.141 0.986 2.141 2.198v4.664h-4.282v-4.664zM3.55 17.953h9.906v12.067h-1.57v-4.664c0-1.856-1.484-3.365-3.309-3.365s-3.308 1.509-3.308 3.365v4.664h-1.719v-12.067z"></path>
</symbol>
</defs>
</svg>
