<svg aria-hidden="true" style="position: absolute; width: 0; height: 0; overflow: hidden;" version="1.1" xmlns="http://www.w3.org/2000/svg" xmlns:xlink="http://www.w3.org/1999/xlink">
<defs>
<symbol id="icon-arrow-footer" viewBox="0 0 32 32">
<path fill="#fff" style="fill: var(--color1, #fff)" d="M30.276 1.724c0.362 0.362 0.485 0.9 0.316 1.383l-9.333 26.667c-0.181 0.516-0.658 0.869-1.204 0.892s-1.051-0.291-1.273-0.791l-5.125-11.531-11.531-5.125c-0.5-0.222-0.813-0.727-0.791-1.273s0.376-1.024 0.892-1.204l26.667-9.333c0.484-0.169 1.021-0.046 1.383 0.316zM16.257 17.629l3.596 8.090 6.292-17.978-9.888 9.888zM24.259 5.855l-17.978 6.292 8.090 3.596 9.888-9.888z"></path>
</symbol>
<symbol id="icon-foot-logo" viewBox="0 0 164 32">
<path fill="#fff" style="fill: var(--color1, #fff)" d="M19.559 13.674l-5.613 9.612-5.613-9.612h11.225zM21.062 12.815h-14.238l7.122 12.172 7.116-12.172z"></path>
<path fill="#fff" style="fill: var(--color1, #fff)" d="M29.317 1.718l5.613 9.612h-11.225l5.613-9.612zM29.317 0l-7.122 12.172h14.244l-7.122-12.172z"></path>
<path fill="#4caf4f" style="fill: var(--color2, #4caf4f)" d="M0 0l5.972 10.766 6.526-10.496-12.497-0.27z"></path>
<path fill="#4caf4f" style="fill: var(--color2, #4caf4f)" d="M13.946 0.943l6.264 10.706h-12.54l6.276-10.706z"></path>
<path fill="#4caf4f" style="fill: var(--color2, #4caf4f)" d="M21.823 13.986l6.27 11h-12.838l6.373-11h0.195z"></path>
<path fill="#4caf4f" style="fill: var(--color2, #4caf4f)" d="M23.181 13.319l6.136 10.832 6.221-10.832h-12.357z"></path>
<path fill="#fff" style="fill: var(--color1, #fff)" d="M62.501 1.738v21.201h-3.872l-9.224-13.344h-0.155v13.344h-4.482v-21.201h3.934l9.151 13.333h0.186v-13.333h4.462z"></path>
<path fill="#fff" style="fill: var(--color1, #fff)" d="M73.368 23.249c-1.636 0-3.043-0.331-4.224-0.994-1.173-0.669-2.077-1.615-2.712-2.836-0.635-1.228-0.952-2.681-0.952-4.358 0-1.636 0.317-3.071 0.952-4.306s1.529-2.198 2.681-2.888c1.159-0.69 2.519-1.035 4.079-1.035 1.049 0 2.026 0.169 2.93 0.507 0.911 0.331 1.705 0.832 2.381 1.501 0.683 0.669 1.215 1.511 1.594 2.526 0.38 1.008 0.569 2.188 0.569 3.54v1.211h-13.426v-2.733h9.275c0-0.635-0.138-1.197-0.414-1.687s-0.659-0.873-1.149-1.149c-0.483-0.283-1.046-0.424-1.687-0.424-0.669 0-1.263 0.155-1.781 0.466-0.511 0.304-0.911 0.714-1.201 1.232-0.29 0.511-0.438 1.080-0.445 1.708v2.598c0 0.787 0.145 1.467 0.435 2.039 0.297 0.573 0.714 1.014 1.253 1.325s1.177 0.466 1.915 0.466c0.49 0 0.939-0.069 1.346-0.207s0.756-0.345 1.046-0.621c0.29-0.276 0.511-0.614 0.663-1.014l4.079 0.269c-0.207 0.98-0.632 1.836-1.273 2.567-0.635 0.725-1.456 1.291-2.464 1.698-1.001 0.4-2.157 0.6-3.468 0.6z"></path>
<path fill="#fff" style="fill: var(--color1, #fff)" d="M86.945 7.038l2.919 5.559 2.992-5.559h4.524l-4.607 7.95 4.731 7.95h-4.503l-3.137-5.497-3.085 5.497h-4.555l4.721-7.95-4.555-7.95h4.555z"></path>
<path fill="#fff" style="fill: var(--color1, #fff)" d="M106.613 23.249c-1.629 0-3.030-0.345-4.203-1.035-1.166-0.697-2.063-1.663-2.691-2.899-0.621-1.235-0.931-2.657-0.931-4.265 0-1.629 0.314-3.057 0.941-4.286 0.635-1.235 1.536-2.198 2.702-2.888 1.166-0.697 2.553-1.046 4.162-1.046 1.387 0 2.601 0.252 3.644 0.756s1.867 1.211 2.474 2.122c0.607 0.911 0.941 1.981 1.004 3.209h-4.162c-0.117-0.794-0.428-1.432-0.931-1.915-0.497-0.49-1.149-0.735-1.956-0.735-0.684 0-1.281 0.186-1.791 0.559-0.504 0.366-0.897 0.901-1.18 1.605s-0.424 1.556-0.424 2.557c0 1.014 0.137 1.877 0.413 2.588 0.283 0.711 0.68 1.253 1.191 1.625s1.107 0.559 1.791 0.559c0.504 0 0.956-0.104 1.356-0.311 0.408-0.207 0.742-0.507 1.004-0.901 0.269-0.4 0.445-0.88 0.528-1.439h4.162c-0.069 1.215-0.4 2.284-0.994 3.209-0.587 0.918-1.397 1.636-2.433 2.153s-2.26 0.776-3.675 0.776z"></path>
<path fill="#fff" style="fill: var(--color1, #fff)" d="M123.784 23.249c-1.635 0-3.043-0.331-4.223-0.994-1.174-0.669-2.077-1.615-2.712-2.836-0.635-1.228-0.952-2.681-0.952-4.358 0-1.636 0.317-3.071 0.952-4.306s1.528-2.198 2.681-2.888c1.16-0.69 2.519-1.035 4.078-1.035 1.049 0 2.026 0.169 2.93 0.507 0.911 0.331 1.704 0.832 2.381 1.501 0.683 0.669 1.214 1.511 1.594 2.526 0.379 1.008 0.569 2.188 0.569 3.54v1.211h-13.427v-2.733h9.275c0-0.635-0.138-1.197-0.413-1.687s-0.659-0.873-1.149-1.149c-0.483-0.283-1.046-0.424-1.688-0.424-0.669 0-1.262 0.155-1.78 0.466-0.511 0.304-0.911 0.714-1.201 1.232-0.29 0.511-0.439 1.080-0.445 1.708v2.598c0 0.787 0.145 1.467 0.435 2.039 0.296 0.573 0.714 1.014 1.252 1.325s1.176 0.466 1.915 0.466c0.49 0 0.939-0.069 1.346-0.207s0.756-0.345 1.046-0.621c0.29-0.276 0.51-0.614 0.663-1.014l4.078 0.269c-0.207 0.98-0.632 1.836-1.273 2.567-0.635 0.725-1.456 1.291-2.464 1.698-1 0.4-2.157 0.6-3.468 0.6z"></path>
<path fill="#fff" style="fill: var(--color1, #fff)" d="M138.371 13.746v9.193h-4.41v-15.901h4.203v2.805h0.186c0.352-0.925 0.942-1.656 1.771-2.195 0.828-0.545 1.832-0.818 3.012-0.818 1.104 0 2.067 0.242 2.888 0.725s1.459 1.173 1.915 2.070c0.456 0.89 0.683 1.953 0.683 3.188v10.124h-4.41v-9.338c0.007-0.973-0.242-1.732-0.745-2.277-0.504-0.552-1.197-0.828-2.081-0.828-0.594 0-1.117 0.128-1.573 0.383-0.449 0.255-0.801 0.628-1.056 1.118-0.248 0.483-0.376 1.066-0.383 1.749z"></path>
<path fill="#fff" style="fill: var(--color1, #fff)" d="M160.552 7.038v3.313h-9.576v-3.313h9.576zM153.15 3.228h4.41v14.824c0 0.407 0.062 0.725 0.186 0.952 0.125 0.221 0.297 0.376 0.518 0.466 0.227 0.090 0.49 0.135 0.787 0.135 0.207 0 0.414-0.017 0.621-0.052 0.207-0.041 0.365-0.073 0.476-0.093l0.694 3.282c-0.221 0.069-0.531 0.148-0.931 0.238-0.401 0.097-0.887 0.155-1.46 0.176-1.063 0.041-1.994-0.1-2.795-0.424-0.793-0.324-1.411-0.828-1.853-1.511s-0.659-1.546-0.653-2.588v-15.404z"></path>
</symbol>
</defs>
</svg>
