<svg aria-hidden="true" style="position: absolute; width: 0; height: 0; overflow: hidden;" version="1.1" xmlns="http://www.w3.org/2000/svg" xmlns:xlink="http://www.w3.org/1999/xlink">
<defs>
<symbol id="icon-pana" viewBox="0 0 33 32">
<path fill="#263238" style="fill: var(--color1, #263238)" d="M27.751 31.936c0 0.011-5.292 0.020-11.817 0.020s-11.819-0.009-11.819-0.020c0-0.011 5.291-0.020 11.819-0.020s11.817 0.010 11.817 0.020z"></path>
<path fill="#4caf4f" style="fill: var(--color2, #4caf4f)" d="M22.595 22.607c-1.177-0.822-1.444-2.349-1.398-3.721 0.008-0.229-0.018-0.471 0.091-0.671s0.363-0.338 0.568-0.242c0.17 0.080 0.244 0.278 0.339 0.442 0.127 0.218 0.313 0.396 0.537 0.513 0.146 0.076 0.326 0.122 0.47 0.043 0.198-0.109 0.221-0.381 0.219-0.61 0-0.425-0.003-0.85-0.008-1.274-0.014-0.228 0.009-0.456 0.069-0.677 0.071-0.216 0.229-0.417 0.444-0.478s0.485 0.065 0.533 0.287c0.008 0.094 0.011 0.189 0.007 0.284 0.006 0.095 0.050 0.2 0.139 0.229s0.182-0.037 0.251-0.104c0.235-0.229 0.395-0.527 0.543-0.821s0.294-0.597 0.508-0.847 0.508-0.45 0.838-0.469c0.33-0.019 0.674 0.184 0.756 0.504s-0.104 0.647-0.305 0.907c-0.302 0.386-0.659 0.726-1.058 1.010-0.078 0.043-0.14 0.109-0.178 0.19-0.050 0.152 0.094 0.305 0.245 0.353 0.17 0.056 0.354 0.039 0.533 0.060s0.37 0.099 0.437 0.267c0.093 0.233-0.102 0.477-0.293 0.637-0.384 0.32-0.82 0.572-1.289 0.745-0.168 0.061-0.344 0.115-0.479 0.232s-0.216 0.322-0.135 0.483c0.082 0.161 0.291 0.212 0.467 0.179s0.332-0.127 0.5-0.191c0.313-0.118 0.717-0.097 0.914 0.174 0.061 0.093 0.1 0.199 0.113 0.31s0.001 0.223-0.037 0.328c-0.076 0.209-0.194 0.4-0.345 0.563-0.499 0.596-1.148 1.049-1.879 1.313-0.726 0.252-1.399 0.32-2.121 0.056z"></path>
<path fill="#263238" style="fill: var(--color1, #263238)" d="M27.169 14.678c0 0-0.007 0.008-0.022 0.021l-0.068 0.060c-0.059 0.053-0.147 0.131-0.258 0.234-0.313 0.291-0.604 0.605-0.87 0.94-0.17 0.211-0.346 0.45-0.533 0.71s-0.381 0.54-0.573 0.838c-0.205 0.314-0.392 0.639-0.562 0.974-0.088 0.175-0.166 0.357-0.246 0.543l-0.236 0.568c-0.311 0.715-0.583 1.447-0.812 2.192-0.185 0.61-0.313 1.236-0.381 1.869-0.044 0.428-0.051 0.858-0.021 1.287 0.012 0.152 0.024 0.269 0.034 0.348 0.005 0.038 0.008 0.069 0.011 0.091v0.031c-0.003-0.010-0.006-0.020-0.007-0.030-0.004-0.022-0.008-0.052-0.014-0.090-0.014-0.076-0.028-0.197-0.042-0.349-0.037-0.43-0.034-0.862 0.008-1.291 0.064-0.636 0.189-1.265 0.373-1.878 0.228-0.747 0.498-1.481 0.81-2.198l0.242-0.565c0.080-0.185 0.159-0.369 0.248-0.544 0.171-0.336 0.36-0.661 0.566-0.976 0.195-0.305 0.392-0.581 0.577-0.838s0.364-0.498 0.533-0.709c0.269-0.334 0.564-0.646 0.882-0.933 0.113-0.101 0.203-0.178 0.264-0.229l0.071-0.057c0.009-0.008 0.018-0.014 0.028-0.020z"></path>
<path fill="#263238" style="fill: var(--color1, #263238)" d="M24.257 18.438c-0.011-0.031-0.018-0.064-0.022-0.097-0.012-0.063-0.026-0.152-0.042-0.268-0.033-0.229-0.066-0.542-0.102-0.889s-0.076-0.661-0.11-0.887c-0.018-0.113-0.033-0.203-0.043-0.267-0.008-0.032-0.013-0.066-0.013-0.099 0.013 0.031 0.023 0.063 0.028 0.095 0.017 0.062 0.036 0.152 0.057 0.266 0.043 0.229 0.086 0.54 0.122 0.887s0.066 0.652 0.090 0.889c0.011 0.107 0.021 0.197 0.029 0.27 0.006 0.033 0.008 0.066 0.006 0.099z"></path>
<path fill="#263238" style="fill: var(--color1, #263238)" d="M27.19 17.891c-0.037 0.008-0.075 0.013-0.113 0.014-0.076 0.007-0.184 0.016-0.319 0.031-0.268 0.029-0.637 0.082-1.042 0.159s-0.768 0.162-1.030 0.229c-0.13 0.034-0.235 0.064-0.305 0.085-0.037 0.013-0.075 0.022-0.114 0.027 0.035-0.018 0.072-0.032 0.11-0.043 0.072-0.025 0.175-0.060 0.305-0.098 0.26-0.076 0.623-0.167 1.030-0.245 0.344-0.066 0.691-0.114 1.040-0.145 0.135-0.011 0.244-0.016 0.32-0.018 0.039-0.003 0.078-0.001 0.117 0.004z"></path>
<path fill="#263238" style="fill: var(--color1, #263238)" d="M22.985 21.693c-0.008-0.011-0.015-0.023-0.020-0.036l-0.050-0.106c-0.043-0.092-0.102-0.229-0.172-0.395-0.142-0.335-0.322-0.805-0.514-1.326s-0.369-0.991-0.503-1.33c-0.066-0.165-0.12-0.299-0.16-0.4l-0.043-0.109c-0.006-0.013-0.010-0.026-0.012-0.040 0.008 0.011 0.015 0.023 0.020 0.036l0.050 0.106c0.043 0.092 0.102 0.229 0.172 0.395 0.142 0.335 0.322 0.805 0.514 1.326s0.369 0.991 0.503 1.33c0.066 0.165 0.12 0.299 0.159 0.4 0.018 0.043 0.032 0.076 0.043 0.109 0.006 0.013 0.010 0.026 0.012 0.040z"></path>
<path fill="#263238" style="fill: var(--color1, #263238)" d="M26.877 20.438c-0.012 0.007-0.025 0.012-0.039 0.016l-0.113 0.038-0.417 0.135c-0.352 0.114-0.838 0.277-1.372 0.457s-1.022 0.34-1.376 0.447c-0.177 0.054-0.321 0.095-0.421 0.123l-0.115 0.030c-0.013 0.004-0.027 0.007-0.041 0.008 0.012-0.007 0.025-0.012 0.039-0.016l0.113-0.038 0.417-0.135c0.352-0.114 0.838-0.277 1.372-0.457s1.021-0.34 1.375-0.447c0.178-0.054 0.321-0.095 0.421-0.123l0.115-0.030c0.013-0.004 0.027-0.007 0.041-0.008z"></path>
<path fill="#4caf4f" style="fill: var(--color2, #4caf4f)" d="M25.289 1.953l-0.392 0.14-0.168-0.513c-0.309-0.946-1.295-1.448-2.201-1.129s-1.388 1.356-1.079 2.302l0.168 0.513-0.394 0.141c-0.15 0.058-0.272 0.172-0.341 0.318s-0.078 0.313-0.027 0.465l1.092 3.337c0.023 0.076 0.060 0.146 0.111 0.207s0.112 0.111 0.183 0.147c0.070 0.036 0.147 0.058 0.225 0.064s0.158-0.004 0.233-0.029l4.067-1.455c0.152-0.058 0.276-0.173 0.345-0.321s0.079-0.316 0.026-0.47l-1.093-3.337c-0.023-0.075-0.061-0.145-0.112-0.206s-0.113-0.11-0.184-0.145c-0.070-0.036-0.147-0.057-0.226-0.062s-0.158 0.005-0.232 0.031zM22.189 2.487c-0.083-0.246-0.068-0.515 0.042-0.75s0.307-0.418 0.55-0.512c0.12-0.041 0.246-0.057 0.373-0.048s0.249 0.044 0.362 0.101 0.212 0.137 0.294 0.235c0.081 0.097 0.142 0.21 0.178 0.331l0.168 0.513-1.798 0.643-0.168-0.513zM24.475 5.448l0.279 0.852c0.005 0.017 0.003 0.035-0.005 0.051s-0.022 0.028-0.039 0.034l-0.391 0.139c-0.016 0.004-0.032 0.002-0.046-0.005s-0.025-0.021-0.030-0.036l-0.281-0.848c-0.155-0.008-0.304-0.064-0.426-0.159s-0.213-0.226-0.259-0.374c-0.066-0.196-0.054-0.41 0.034-0.597s0.245-0.333 0.438-0.407c0.095-0.033 0.196-0.046 0.297-0.038s0.198 0.035 0.288 0.081c0.090 0.046 0.169 0.109 0.234 0.187s0.113 0.167 0.142 0.263c0.049 0.151 0.053 0.312 0.012 0.465s-0.127 0.29-0.245 0.395l-0.001-0.002z"></path>
<path fill="#263238" style="fill: var(--color1, #263238)" d="M24.879 2.084c0 0.011-0.728 0.284-1.633 0.61s-1.644 0.587-1.648 0.579c-0.004-0.008 0.728-0.284 1.634-0.61s1.643-0.589 1.647-0.579z"></path>
<path fill="#263238" style="fill: var(--color1, #263238)" d="M25.743 2.224c0.003 0.007 0.006 0.014 0.008 0.021 0.006 0.015 0.013 0.035 0.022 0.059 0.020 0.056 0.047 0.133 0.082 0.229l0.293 0.852c0.122 0.361 0.267 0.789 0.429 1.265 0.076 0.239 0.166 0.487 0.25 0.748 0.045 0.135 0.064 0.277 0.057 0.418-0.006 0.074-0.027 0.145-0.062 0.211-0.037 0.065-0.086 0.123-0.144 0.17-0.118 0.086-0.248 0.153-0.387 0.197l-1.135 0.407-1.258 0.448-0.85 0.299-0.229 0.076-0.061 0.020c-0.007 0.003-0.014 0.005-0.021 0.005 0 0 0.006 0 0.019-0.009l0.059-0.024 0.229-0.086 0.845-0.311 2.39-0.867c0.135-0.043 0.262-0.108 0.376-0.191 0.054-0.043 0.1-0.097 0.134-0.158 0.032-0.061 0.052-0.127 0.057-0.196 0.007-0.137-0.012-0.273-0.055-0.403-0.082-0.259-0.169-0.51-0.248-0.748-0.158-0.476-0.305-0.906-0.421-1.267s-0.213-0.652-0.28-0.856c-0.032-0.1-0.056-0.178-0.076-0.234l-0.018-0.061c-0.002-0.005-0.004-0.009-0.005-0.014z"></path>
<path fill="#263238" style="fill: var(--color1, #263238)" d="M23.598 1.174c0 0-0.040-0.020-0.115-0.050-0.106-0.041-0.219-0.064-0.333-0.067-0.169-0.006-0.337 0.026-0.492 0.093-0.189 0.083-0.35 0.218-0.466 0.389s-0.179 0.372-0.179 0.578c0.002 0.169 0.027 0.337 0.076 0.499 0.040 0.139 0.081 0.249 0.108 0.326 0.016 0.039 0.029 0.079 0.040 0.12-0.022-0.037-0.040-0.075-0.054-0.115-0.031-0.076-0.076-0.184-0.12-0.324-0.054-0.164-0.084-0.334-0.088-0.507-0.002-0.214 0.062-0.424 0.183-0.601 0.12-0.177 0.287-0.316 0.484-0.401 0.16-0.067 0.333-0.097 0.507-0.087 0.116 0.006 0.231 0.033 0.338 0.080 0.029 0.013 0.056 0.028 0.082 0.046 0.011 0.005 0.021 0.011 0.030 0.019z"></path>
<path fill="#263238" style="fill: var(--color1, #263238)" d="M23.633 4.155c0.012-0.007 0.025-0.014 0.038-0.019 0.038-0.017 0.078-0.031 0.118-0.042 0.064-0.019 0.131-0.030 0.197-0.034 0.091-0.005 0.182 0.009 0.267 0.040 0.195 0.069 0.374 0.267 0.463 0.533 0.042 0.143 0.042 0.295 0 0.437-0.047 0.155-0.131 0.296-0.245 0.411l0.005-0.021c0.101 0.278 0.212 0.58 0.326 0.895l0.007 0.019-0.019 0.007-0.175 0.058-0.4 0.133-0.006-0.019c-0.104-0.315-0.219-0.61-0.305-0.898l0.017 0.013c-0.149-0.012-0.291-0.068-0.408-0.161-0.106-0.082-0.193-0.186-0.255-0.305-0.056-0.106-0.084-0.224-0.081-0.343 0.004-0.122 0.034-0.242 0.089-0.35s0.134-0.204 0.23-0.279c0.040-0.032 0.084-0.058 0.132-0.076-0.043 0.026-0.085 0.053-0.125 0.083-0.106 0.090-0.187 0.205-0.235 0.335-0.042 0.098-0.061 0.204-0.057 0.31s0.032 0.21 0.081 0.305c0.061 0.114 0.146 0.214 0.249 0.293 0.112 0.088 0.247 0.141 0.389 0.152h0.013l0.004 0.011c0.084 0.283 0.199 0.58 0.305 0.897l-0.025-0.012 0.381-0.127 0.174-0.059-0.012 0.026c-0.114-0.315-0.223-0.617-0.324-0.895v-0.011l0.009-0.009c0.111-0.11 0.193-0.245 0.241-0.394 0.040-0.137 0.040-0.282 0-0.418-0.083-0.256-0.255-0.45-0.44-0.519-0.082-0.032-0.17-0.046-0.258-0.043-0.066 0.002-0.131 0.010-0.195 0.027-0.114 0.028-0.167 0.054-0.168 0.050z"></path>
<path fill="#455a64" style="fill: var(--color3, #455a64)" d="M21.277 26.159l-7.612-0.035c-0.44-0.002-0.86-0.179-1.17-0.491s-0.482-0.735-0.48-1.174l0.081-19.082c0.001-0.218 0.045-0.433 0.129-0.634s0.207-0.383 0.362-0.536c0.155-0.153 0.338-0.275 0.54-0.357s0.417-0.124 0.635-0.123l7.611 0.035c0.44 0.002 0.86 0.179 1.17 0.491s0.482 0.734 0.481 1.174l-0.081 19.082c-0.001 0.218-0.045 0.433-0.129 0.634s-0.207 0.383-0.362 0.537c-0.155 0.153-0.338 0.275-0.54 0.357s-0.417 0.125-0.635 0.124z"></path>
<path fill="#fff" style="fill: var(--color4, #fff)" d="M21.362 4.416h-1.475c-0.048 0.001-0.096 0.011-0.14 0.030s-0.084 0.047-0.117 0.082-0.060 0.076-0.077 0.12c-0.018 0.045-0.026 0.093-0.025 0.141v0.267c0.001 0.048-0.008 0.096-0.025 0.141s-0.044 0.086-0.077 0.12c-0.033 0.035-0.073 0.062-0.117 0.081s-0.092 0.029-0.14 0.030l-2.876-0.013c-0.097-0.003-0.19-0.044-0.257-0.114s-0.103-0.165-0.101-0.262v-0.267c0.002-0.097-0.034-0.191-0.101-0.262s-0.159-0.112-0.256-0.115h-0.519l-1.292-0.006c-0.307-0.002-0.603 0.118-0.822 0.334s-0.344 0.509-0.347 0.816l-0.076 18.626c-0.001 0.152 0.029 0.303 0.086 0.445s0.143 0.269 0.25 0.378c0.107 0.108 0.235 0.194 0.375 0.253s0.291 0.090 0.444 0.090l7.596 0.035c0.153 0.001 0.304-0.029 0.445-0.086s0.27-0.143 0.378-0.25 0.195-0.235 0.253-0.376c0.059-0.141 0.090-0.292 0.090-0.444l0.076-18.626c0.002-0.308-0.119-0.604-0.335-0.824s-0.511-0.343-0.819-0.346z"></path>
<path fill="#4caf4f" style="fill: var(--color2, #4caf4f)" d="M20.34 22.882l-5.648-0.024c-0.059 0-0.106-0.064-0.105-0.142l0.006-1.478c0-0.076 0.048-0.142 0.107-0.142l5.648 0.026c0.033 0.006 0.062 0.024 0.081 0.050s0.028 0.060 0.024 0.092l-0.005 1.476c0 0.078-0.049 0.142-0.107 0.141z"></path>
<path fill="#e8e8e3" style="fill: var(--color5, #e8e8e3)" d="M16.409 22.129c-0.031 0-0.061-0.005-0.090-0.015s-0.050-0.024-0.066-0.040l0.017-0.034c0.015 0.014 0.035 0.027 0.059 0.037s0.052 0.014 0.079 0.014c0.026 0 0.048-0.003 0.064-0.010s0.029-0.016 0.037-0.027c0.008-0.011 0.012-0.024 0.012-0.037 0-0.016-0.005-0.030-0.014-0.040s-0.021-0.018-0.037-0.023c-0.015-0.006-0.032-0.011-0.050-0.016s-0.037-0.009-0.055-0.014c-0.018-0.005-0.035-0.012-0.051-0.020s-0.028-0.019-0.037-0.033c-0.009-0.014-0.014-0.032-0.014-0.055 0-0.021 0.005-0.040 0.016-0.057s0.028-0.032 0.051-0.042c0.023-0.011 0.052-0.016 0.088-0.016 0.024 0 0.047 0.003 0.070 0.010s0.043 0.015 0.060 0.027l-0.015 0.035c-0.018-0.012-0.037-0.021-0.058-0.026s-0.039-0.008-0.058-0.008c-0.025 0-0.046 0.003-0.062 0.010s-0.029 0.016-0.037 0.028c-0.008 0.011-0.011 0.024-0.011 0.038 0 0.016 0.005 0.030 0.014 0.040s0.022 0.018 0.037 0.023c0.016 0.006 0.033 0.011 0.051 0.015s0.037 0.009 0.055 0.014c0.018 0.005 0.035 0.012 0.050 0.020s0.028 0.019 0.037 0.032c0.010 0.014 0.014 0.031 0.014 0.053 0 0.020-0.006 0.039-0.017 0.057s-0.028 0.031-0.052 0.042c-0.023 0.010-0.052 0.016-0.088 0.016zM16.662 22.125v-0.42h0.044v0.42h-0.044zM16.843 22.125v-0.42h0.037l0.29 0.365h-0.019v-0.365h0.044v0.42h-0.037l-0.289-0.365h0.019v0.365h-0.044zM17.515 22.129c-0.032 0-0.062-0.005-0.089-0.016s-0.050-0.026-0.070-0.045c-0.020-0.019-0.035-0.042-0.046-0.068s-0.016-0.054-0.016-0.085c0-0.031 0.005-0.059 0.016-0.085s0.027-0.049 0.047-0.068 0.043-0.034 0.070-0.044c0.027-0.011 0.057-0.016 0.089-0.016s0.061 0.005 0.088 0.015c0.027 0.010 0.050 0.025 0.068 0.046l-0.028 0.028c-0.018-0.018-0.037-0.030-0.058-0.038s-0.044-0.011-0.068-0.011c-0.026 0-0.050 0.004-0.072 0.013s-0.041 0.021-0.057 0.037c-0.016 0.016-0.029 0.034-0.038 0.055s-0.013 0.044-0.013 0.069c0 0.025 0.004 0.048 0.013 0.069s0.022 0.040 0.038 0.056c0.016 0.016 0.035 0.028 0.057 0.037s0.046 0.013 0.071 0.013c0.024 0 0.047-0.004 0.068-0.011s0.041-0.019 0.059-0.037l0.025 0.034c-0.020 0.018-0.043 0.031-0.070 0.040s-0.055 0.013-0.084 0.013zM17.626 22.070v-0.155h0.043v0.16l-0.043-0.005zM18.12 22.129c-0.054 0-0.096-0.015-0.127-0.046s-0.046-0.076-0.046-0.137v-0.24h0.044v0.239c0 0.050 0.011 0.086 0.034 0.11s0.054 0.035 0.095 0.035c0.041 0 0.073-0.012 0.095-0.035s0.034-0.060 0.034-0.11v-0.239h0.043v0.24c0 0.060-0.015 0.106-0.046 0.137s-0.072 0.046-0.126 0.046zM18.426 22.125v-0.42h0.157c0.036 0 0.066 0.006 0.092 0.017s0.045 0.028 0.059 0.049c0.014 0.021 0.021 0.047 0.021 0.077s-0.007 0.055-0.021 0.077c-0.014 0.021-0.033 0.038-0.059 0.049s-0.056 0.017-0.092 0.017h-0.133l0.020-0.021v0.154h-0.044zM18.47 21.976l-0.020-0.022h0.131c0.042 0 0.074-0.009 0.095-0.027s0.033-0.044 0.033-0.077c0-0.034-0.011-0.059-0.033-0.078s-0.053-0.028-0.095-0.028h-0.131l0.020-0.021v0.252z"></path>
<path fill="#4caf4f" style="fill: var(--color2, #4caf4f)" d="M15.818 9.891l-1.96-0.009-0.002 0.36 1.96 0.009 0.002-0.36z"></path>
<path fill="#000" style="fill: var(--color6, #000)" opacity="0.1" d="M15.818 9.891l-1.96-0.009-0.002 0.36 1.96 0.009 0.002-0.36z"></path>
<path fill="#e0e0e0" style="fill: var(--color7, #e0e0e0)" d="M21.564 12.1c0.015-0.002 0.031-0.005 0.045-0.011 0.021-0.008 0.039-0.022 0.053-0.040s0.022-0.040 0.023-0.062c0-0.121 0-0.298 0-0.525 0-0.114 0-0.241 0-0.381 0-0.034 0-0.070 0-0.106 0.005-0.035-0.003-0.070-0.021-0.1-0.010-0.014-0.024-0.026-0.040-0.034s-0.033-0.012-0.051-0.013h-1.22l-6.374-0.024c-0.016-0-0.032 0.003-0.047 0.011s-0.027 0.018-0.037 0.031c-0.018 0.030-0.025 0.065-0.020 0.1 0 0.076 0 0.152 0 0.229 0 0.152 0 0.305 0 0.457 0 0.076 0 0.152 0 0.229-0.003 0.035-0.003 0.071 0 0.107 0.004 0.015 0.011 0.029 0.022 0.041s0.023 0.021 0.038 0.027c0.015 0.006 0.031 0.009 0.047 0.008h0.388l7.151 0.048c0.031 0 0.047 0 0.047 0h-2.64l-4.946-0.016c-0.021 0.001-0.043-0.003-0.062-0.011s-0.038-0.022-0.052-0.038c-0.014-0.016-0.025-0.036-0.030-0.057-0.004-0.020-0.006-0.040-0.005-0.061v-0.056c0-0.076 0-0.152 0-0.229 0-0.152 0-0.305 0-0.457 0-0.076 0-0.152 0-0.229-0.001-0.020-0.001-0.041 0-0.061 0.003-0.022 0.011-0.044 0.025-0.062s0.031-0.033 0.051-0.043c0.020-0.010 0.042-0.015 0.065-0.015l7.594 0.043c0.021 0 0.042 0.005 0.060 0.015s0.035 0.024 0.047 0.041c0.021 0.033 0.030 0.073 0.024 0.112 0 0.036 0 0.072 0 0.106 0 0.139 0 0.266 0 0.381 0 0.229-0.005 0.404-0.007 0.526-0.002 0.023-0.010 0.046-0.025 0.065s-0.033 0.033-0.055 0.041c-0.014 0.009-0.031 0.014-0.048 0.014z"></path>
<path fill="#4caf4f" style="fill: var(--color2, #4caf4f)" d="M18.032 11.187h-3.585v0.336h3.585v-0.336z"></path>
<path fill="#fff" style="fill: var(--color4, #fff)" opacity="0.2" d="M18.032 11.187h-3.585v0.336h3.585v-0.336z"></path>
<path fill="#4caf4f" style="fill: var(--color2, #4caf4f)" d="M15.805 13.173l-1.96-0.009-0.002 0.36 1.96 0.009 0.002-0.36z"></path>
<path fill="#000" style="fill: var(--color6, #000)" opacity="0.1" d="M15.805 13.173l-1.96-0.009-0.002 0.36 1.96 0.009 0.002-0.36z"></path>
<path fill="#e0e0e0" style="fill: var(--color7, #e0e0e0)" d="M21.514 15.381c0.015-0.002 0.031-0.005 0.046-0.008 0.021-0.007 0.041-0.018 0.057-0.033s0.030-0.033 0.039-0.054c0.012-0.031 0.017-0.064 0.014-0.097 0-0.037 0-0.076 0-0.12 0-0.088 0-0.189 0-0.305v-0.484c0.004-0.035-0.004-0.070-0.022-0.101s-0.048-0.054-0.083-0.065c-0.038-0.007-0.077-0.009-0.115-0.006h-1.097l-6.352-0.024c-0.034 0-0.067 0.013-0.093 0.035s-0.042 0.054-0.047 0.088c0 0.072 0 0.152 0 0.229 0 0.152 0 0.305 0 0.457 0 0.076 0 0.152 0 0.229-0.003 0.036-0.001 0.071 0.005 0.107 0.009 0.031 0.029 0.058 0.056 0.076 0.028 0.018 0.061 0.026 0.095 0.024h0.326l4.542 0.026 2.448 0.021-7.323-0.009c-0.041 0.002-0.082-0.009-0.117-0.031-0.035-0.024-0.060-0.059-0.072-0.1-0.007-0.039-0.009-0.078-0.006-0.117 0-0.076 0-0.152 0-0.229 0-0.152 0-0.305 0-0.457 0-0.076 0-0.152 0-0.229 0.006-0.044 0.027-0.084 0.060-0.113s0.075-0.045 0.119-0.045l7.448 0.043c0.041-0.002 0.082 0 0.122 0.008 0.040 0.013 0.073 0.040 0.094 0.076 0.020 0.034 0.028 0.073 0.024 0.111 0 0.036 0 0.071 0 0.106 0 0.138 0 0.264 0 0.381s0 0.215 0 0.305c0 0.043 0 0.084 0 0.121 0.003 0.034-0.003 0.068-0.016 0.1-0.010 0.021-0.024 0.040-0.042 0.055s-0.038 0.026-0.061 0.032c-0.017 0.001-0.033-0-0.050-0.005z"></path>
<path fill="#4caf4f" style="fill: var(--color2, #4caf4f)" d="M15.79 16.596l-1.96-0.009-0.002 0.36 1.96 0.009 0.002-0.36z"></path>
<path fill="#000" style="fill: var(--color6, #000)" opacity="0.1" d="M15.79 16.596l-1.96-0.009-0.002 0.36 1.96 0.009 0.002-0.36z"></path>
<path fill="#e0e0e0" style="fill: var(--color7, #e0e0e0)" d="M21.499 18.804c0.015-0.002 0.031-0.005 0.046-0.008 0.021-0.007 0.041-0.018 0.057-0.033s0.030-0.033 0.039-0.053c0.012-0.031 0.017-0.064 0.014-0.097 0-0.037 0-0.076 0-0.121 0-0.088 0-0.189 0-0.305v-0.484c0.004-0.035-0.004-0.070-0.022-0.101-0.019-0.031-0.049-0.053-0.083-0.064-0.038-0.007-0.077-0.009-0.115-0.007h-1.097l-6.352-0.024c-0.034 0-0.067 0.013-0.093 0.035s-0.042 0.054-0.047 0.088c0 0.076 0 0.152 0 0.229 0 0.152 0 0.305 0 0.457 0 0.076 0 0.152 0 0.229-0.003 0.035-0.001 0.071 0.005 0.106 0.009 0.031 0.029 0.058 0.056 0.076 0.028 0.018 0.061 0.027 0.095 0.024h0.332l6.99 0.048h-2.448l-4.873-0.015c-0.041 0.003-0.082-0.008-0.117-0.031s-0.060-0.059-0.072-0.1c-0.007-0.039-0.009-0.078-0.006-0.117 0-0.076 0-0.152 0-0.229 0-0.152 0-0.305 0-0.457 0-0.076 0-0.152 0-0.232 0.005-0.044 0.027-0.084 0.059-0.113s0.075-0.045 0.119-0.045l7.448 0.043c0.041-0.003 0.082 0 0.122 0.008 0.040 0.013 0.073 0.040 0.094 0.076 0.020 0.034 0.028 0.072 0.024 0.111 0 0.036 0 0.072 0 0.106 0 0.138 0 0.264 0 0.381s0 0.215 0 0.305c0 0.043 0 0.084 0 0.121 0.003 0.034-0.003 0.068-0.016 0.1-0.010 0.021-0.024 0.040-0.042 0.055s-0.038 0.026-0.061 0.032c-0.018 0.006-0.037 0.008-0.056 0.005z"></path>
<path fill="#4caf4f" style="fill: var(--color2, #4caf4f)" d="M17.955 14.563l-3.585-0.016-0.002 0.336 3.585 0.016 0.001-0.336z"></path>
<path fill="#fff" style="fill: var(--color4, #fff)" opacity="0.2" d="M17.955 14.563l-3.585-0.016-0.002 0.336 3.585 0.016 0.001-0.336z"></path>
<path fill="#4caf4f" style="fill: var(--color2, #4caf4f)" d="M14.695 18.182c-0.002 0.031-0.013 0.060-0.032 0.084s-0.044 0.043-0.073 0.053c-0.029 0.010-0.060 0.011-0.090 0.004s-0.057-0.024-0.077-0.047-0.034-0.051-0.039-0.082c-0.005-0.030-0-0.061 0.013-0.089s0.034-0.051 0.060-0.068c0.026-0.016 0.056-0.024 0.087-0.024 0.042 0.002 0.082 0.021 0.111 0.053s0.043 0.073 0.042 0.116z"></path>
<path fill="#4caf4f" style="fill: var(--color2, #4caf4f)" d="M15.18 18.184c0.002 0.021-0.001 0.043-0.009 0.063s-0.018 0.039-0.033 0.055c-0.015 0.016-0.033 0.028-0.052 0.037s-0.041 0.013-0.063 0.013c-0.022 0-0.043-0.004-0.063-0.013s-0.038-0.021-0.052-0.037c-0.015-0.016-0.026-0.034-0.033-0.055s-0.010-0.042-0.009-0.063c-0.002-0.021 0.001-0.043 0.009-0.063s0.018-0.039 0.033-0.055c0.015-0.016 0.032-0.028 0.052-0.037s0.041-0.013 0.063-0.013c0.022 0 0.043 0.004 0.063 0.013s0.038 0.021 0.052 0.037c0.015 0.016 0.026 0.034 0.033 0.055s0.010 0.042 0.009 0.063z"></path>
<path fill="#4caf4f" style="fill: var(--color2, #4caf4f)" d="M15.666 18.186c-0.002 0.031-0.013 0.060-0.032 0.084s-0.044 0.043-0.073 0.053c-0.029 0.010-0.060 0.011-0.090 0.004s-0.057-0.024-0.077-0.047c-0.021-0.023-0.034-0.051-0.039-0.082s-0-0.061 0.013-0.089c0.013-0.028 0.034-0.051 0.060-0.068s0.056-0.024 0.087-0.024c0.042 0.003 0.082 0.022 0.111 0.053s0.043 0.073 0.042 0.115z"></path>
<path fill="#4caf4f" style="fill: var(--color2, #4caf4f)" d="M16.152 18.189c-0.002 0.031-0.013 0.060-0.032 0.084s-0.044 0.043-0.073 0.053c-0.029 0.010-0.060 0.011-0.090 0.004s-0.057-0.024-0.077-0.047-0.034-0.051-0.039-0.082c-0.005-0.030-0-0.061 0.013-0.089s0.034-0.051 0.060-0.068c0.026-0.016 0.056-0.024 0.087-0.024 0.042 0.003 0.082 0.022 0.111 0.053s0.044 0.073 0.042 0.115z"></path>
<path fill="#4caf4f" style="fill: var(--color2, #4caf4f)" d="M16.637 18.19c-0.002 0.031-0.013 0.060-0.032 0.085s-0.044 0.043-0.073 0.053-0.060 0.012-0.090 0.004c-0.030-0.008-0.057-0.024-0.077-0.047s-0.034-0.051-0.039-0.081c-0.005-0.030-0-0.062 0.012-0.090s0.034-0.052 0.060-0.068c0.026-0.016 0.056-0.024 0.087-0.024 0.042 0.003 0.082 0.022 0.11 0.053s0.044 0.072 0.042 0.115z"></path>
<path fill="#4caf4f" style="fill: var(--color2, #4caf4f)" d="M17.123 18.192c-0.002 0.031-0.013 0.060-0.031 0.084s-0.044 0.043-0.073 0.053c-0.029 0.010-0.060 0.012-0.090 0.005s-0.057-0.023-0.078-0.045c-0.021-0.022-0.035-0.050-0.040-0.081s-0.001-0.061 0.011-0.089c0.012-0.028 0.032-0.052 0.058-0.069s0.056-0.026 0.086-0.026c0.043 0.002 0.083 0.020 0.113 0.052s0.045 0.073 0.043 0.116z"></path>
<path fill="#4caf4f" style="fill: var(--color2, #4caf4f)" d="M17.609 18.195c0.001 0.021-0.001 0.043-0.009 0.063s-0.018 0.039-0.033 0.055c-0.015 0.016-0.032 0.028-0.052 0.037s-0.041 0.013-0.063 0.013-0.043-0.004-0.063-0.013c-0.020-0.009-0.038-0.021-0.052-0.037s-0.026-0.034-0.033-0.055c-0.007-0.020-0.010-0.042-0.009-0.063-0.001-0.022 0.001-0.043 0.009-0.063s0.018-0.039 0.033-0.055c0.015-0.016 0.032-0.028 0.052-0.037s0.041-0.013 0.063-0.013c0.022 0 0.043 0.005 0.063 0.013s0.038 0.021 0.052 0.037c0.015 0.016 0.026 0.034 0.033 0.055s0.010 0.042 0.009 0.063z"></path>
<path fill="#4caf4f" style="fill: var(--color2, #4caf4f)" d="M18.094 18.197c-0.002 0.031-0.013 0.060-0.032 0.084s-0.044 0.043-0.073 0.053c-0.029 0.010-0.060 0.012-0.090 0.005s-0.057-0.023-0.078-0.045c-0.021-0.022-0.035-0.050-0.040-0.081s-0.001-0.061 0.011-0.089c0.012-0.028 0.032-0.052 0.058-0.069s0.056-0.026 0.086-0.026c0.043 0.002 0.083 0.020 0.113 0.052s0.045 0.073 0.044 0.116z"></path>
<path fill="#4caf4f" style="fill: var(--color2, #4caf4f)" d="M18.579 18.199c-0.002 0.031-0.013 0.060-0.032 0.085s-0.044 0.043-0.073 0.053c-0.029 0.010-0.060 0.012-0.090 0.004s-0.057-0.024-0.077-0.047c-0.021-0.023-0.034-0.051-0.039-0.081s-0-0.062 0.012-0.090 0.034-0.052 0.060-0.068c0.026-0.016 0.056-0.024 0.087-0.024 0.042 0.003 0.082 0.022 0.11 0.053s0.044 0.072 0.042 0.115z"></path>
<path fill="#fff" style="fill: var(--color4, #fff)" opacity="0.2" d="M14.695 18.182c-0.002 0.031-0.013 0.060-0.032 0.084s-0.044 0.043-0.073 0.053c-0.029 0.010-0.060 0.011-0.090 0.004s-0.057-0.024-0.077-0.047-0.034-0.051-0.039-0.082c-0.005-0.030-0-0.061 0.013-0.089s0.034-0.051 0.060-0.068c0.026-0.016 0.056-0.024 0.087-0.024 0.042 0.002 0.082 0.021 0.111 0.053s0.043 0.073 0.042 0.116z"></path>
<path fill="#fff" style="fill: var(--color4, #fff)" opacity="0.2" d="M15.18 18.184c0.002 0.021-0.001 0.043-0.009 0.063s-0.018 0.039-0.033 0.055c-0.015 0.016-0.033 0.028-0.052 0.037s-0.041 0.013-0.063 0.013c-0.022 0-0.043-0.004-0.063-0.013s-0.038-0.021-0.052-0.037c-0.015-0.016-0.026-0.034-0.033-0.055s-0.010-0.042-0.009-0.063c-0.002-0.021 0.001-0.043 0.009-0.063s0.018-0.039 0.033-0.055c0.015-0.016 0.032-0.028 0.052-0.037s0.041-0.013 0.063-0.013c0.022 0 0.043 0.004 0.063 0.013s0.038 0.021 0.052 0.037c0.015 0.016 0.026 0.034 0.033 0.055s0.010 0.042 0.009 0.063z"></path>
<path fill="#fff" style="fill: var(--color4, #fff)" opacity="0.2" d="M15.666 18.186c-0.002 0.031-0.013 0.060-0.032 0.084s-0.044 0.043-0.073 0.053c-0.029 0.010-0.060 0.011-0.090 0.004s-0.057-0.024-0.077-0.047c-0.021-0.023-0.034-0.051-0.039-0.082s-0-0.061 0.013-0.089c0.013-0.028 0.034-0.051 0.060-0.068s0.056-0.024 0.087-0.024c0.042 0.003 0.082 0.022 0.111 0.053s0.043 0.073 0.042 0.115z"></path>
<path fill="#fff" style="fill: var(--color4, #fff)" opacity="0.2" d="M16.152 18.189c-0.002 0.031-0.013 0.060-0.032 0.084s-0.044 0.043-0.073 0.053c-0.029 0.010-0.060 0.011-0.090 0.004s-0.057-0.024-0.077-0.047-0.034-0.051-0.039-0.082c-0.005-0.030-0-0.061 0.013-0.089s0.034-0.051 0.060-0.068c0.026-0.016 0.056-0.024 0.087-0.024 0.042 0.003 0.082 0.022 0.111 0.053s0.044 0.073 0.042 0.115z"></path>
<path fill="#fff" style="fill: var(--color4, #fff)" opacity="0.2" d="M16.637 18.19c-0.002 0.031-0.013 0.060-0.032 0.085s-0.044 0.043-0.073 0.053-0.060 0.012-0.090 0.004c-0.030-0.008-0.057-0.024-0.077-0.047s-0.034-0.051-0.039-0.081c-0.005-0.030-0-0.062 0.012-0.090s0.034-0.052 0.060-0.068c0.026-0.016 0.056-0.024 0.087-0.024 0.042 0.003 0.082 0.022 0.11 0.053s0.044 0.072 0.042 0.115z"></path>
<path fill="#fff" style="fill: var(--color4, #fff)" opacity="0.2" d="M17.123 18.192c-0.002 0.031-0.013 0.060-0.031 0.084s-0.044 0.043-0.073 0.053c-0.029 0.010-0.060 0.012-0.090 0.005s-0.057-0.023-0.078-0.045c-0.021-0.022-0.035-0.050-0.040-0.081s-0.001-0.061 0.011-0.089c0.012-0.028 0.032-0.052 0.058-0.069s0.056-0.026 0.086-0.026c0.043 0.002 0.083 0.020 0.113 0.052s0.045 0.073 0.043 0.116z"></path>
<path fill="#fff" style="fill: var(--color4, #fff)" opacity="0.2" d="M17.609 18.195c0.001 0.021-0.001 0.043-0.009 0.063s-0.018 0.039-0.033 0.055c-0.015 0.016-0.032 0.028-0.052 0.037s-0.041 0.013-0.063 0.013-0.043-0.004-0.063-0.013c-0.020-0.009-0.038-0.021-0.052-0.037s-0.026-0.034-0.033-0.055c-0.007-0.020-0.010-0.042-0.009-0.063-0.001-0.022 0.001-0.043 0.009-0.063s0.018-0.039 0.033-0.055c0.015-0.016 0.032-0.028 0.052-0.037s0.041-0.013 0.063-0.013c0.022 0 0.043 0.005 0.063 0.013s0.038 0.021 0.052 0.037c0.015 0.016 0.026 0.034 0.033 0.055s0.010 0.042 0.009 0.063z"></path>
<path fill="#fff" style="fill: var(--color4, #fff)" opacity="0.2" d="M18.094 18.197c-0.002 0.031-0.013 0.060-0.032 0.084s-0.044 0.043-0.073 0.053c-0.029 0.010-0.060 0.012-0.090 0.005s-0.057-0.023-0.078-0.045c-0.021-0.022-0.035-0.050-0.040-0.081s-0.001-0.061 0.011-0.089c0.012-0.028 0.032-0.052 0.058-0.069s0.056-0.026 0.086-0.026c0.043 0.002 0.083 0.020 0.113 0.052s0.045 0.073 0.044 0.116z"></path>
<path fill="#fff" style="fill: var(--color4, #fff)" opacity="0.2" d="M18.579 18.199c-0.002 0.031-0.013 0.060-0.032 0.085s-0.044 0.043-0.073 0.053c-0.029 0.010-0.060 0.012-0.090 0.004s-0.057-0.024-0.077-0.047c-0.021-0.023-0.034-0.051-0.039-0.081s-0-0.062 0.012-0.090 0.034-0.052 0.060-0.068c0.026-0.016 0.056-0.024 0.087-0.024 0.042 0.003 0.082 0.022 0.11 0.053s0.044 0.072 0.042 0.115z"></path>
<path fill="#4caf4f" style="fill: var(--color2, #4caf4f)" d="M17.89 7.198c0.053-0.023 0.098-0.062 0.129-0.11s0.048-0.105 0.047-0.163c0.002-0.038-0.004-0.075-0.017-0.111s-0.033-0.068-0.059-0.095c-0.026-0.027-0.057-0.049-0.092-0.064s-0.072-0.023-0.11-0.023c-0.038 0-0.075 0.008-0.11 0.023s-0.066 0.037-0.092 0.064c-0.026 0.027-0.046 0.060-0.059 0.095s-0.019 0.073-0.017 0.111c-0.001 0.058 0.015 0.116 0.047 0.165s0.077 0.088 0.13 0.112c-0.427 0.064-0.408 0.527-0.408 0.527l1.009 0.005c0 0 0.024-0.472-0.4-0.535z"></path>
<path fill="#000" style="fill: var(--color6, #000)" opacity="0.1" d="M17.89 7.198c0.053-0.023 0.098-0.062 0.129-0.11s0.048-0.105 0.047-0.163c0.002-0.038-0.004-0.075-0.017-0.111s-0.033-0.068-0.059-0.095c-0.026-0.027-0.057-0.049-0.092-0.064s-0.072-0.023-0.11-0.023c-0.038 0-0.075 0.008-0.11 0.023s-0.066 0.037-0.092 0.064c-0.026 0.027-0.046 0.060-0.059 0.095s-0.019 0.073-0.017 0.111c-0.001 0.058 0.015 0.116 0.047 0.165s0.077 0.088 0.13 0.112c-0.427 0.064-0.408 0.527-0.408 0.527l1.009 0.005c0 0 0.024-0.472-0.4-0.535z"></path>
<path fill="#4caf4f" style="fill: var(--color2, #4caf4f)" d="M19.529 8.032l-3.596-0.016-0.002 0.43 3.596 0.016 0.002-0.43z"></path>
<path fill="#fff" style="fill: var(--color4, #fff)" opacity="0.2" d="M19.529 8.032l-3.596-0.016-0.002 0.43 3.596 0.016 0.002-0.43z"></path>
<path fill="#4caf4f" style="fill: var(--color2, #4caf4f)" d="M6.309 10.259h-0.036l-0.104 0.008c-0.056 0.003-0.112 0.011-0.167 0.022-0.036 0.005-0.071 0.012-0.106 0.021l-0.118 0.033c-0.201 0.062-0.391 0.156-0.562 0.278-0.226 0.164-0.414 0.374-0.553 0.616-0.082 0.139-0.147 0.288-0.194 0.443-0.049 0.168-0.078 0.342-0.085 0.517-0.005 0.092-0.003 0.184 0.005 0.276 0 0.046 0.013 0.093 0.019 0.14s0.014 0.095 0.027 0.141c0.069 0.306 0.208 0.591 0.406 0.834s0.451 0.435 0.737 0.563c0.207 0.089 0.429 0.139 0.655 0.147 0.233 0.013 0.466-0.021 0.686-0.098l0.067-0.025h0.009l0.008 0.005 0.961 0.488-0.028 0.024c-0.103-0.319-0.202-0.627-0.298-0.924v-0.011l0.008-0.008c0.233-0.235 0.406-0.522 0.504-0.838 0.089-0.289 0.115-0.593 0.076-0.893-0.035-0.266-0.12-0.524-0.252-0.757-0.114-0.201-0.261-0.381-0.434-0.533-0.143-0.12-0.302-0.221-0.472-0.3-0.128-0.055-0.262-0.098-0.399-0.126l-0.152-0.025-0.111-0.008-0.067-0.005h-0.023c0.008-0.001 0.015-0.001 0.023 0h0.068l0.111 0.005 0.152 0.022c0.139 0.026 0.274 0.067 0.405 0.121 0.173 0.078 0.334 0.179 0.48 0.3 0.177 0.152 0.327 0.332 0.444 0.533 0.136 0.236 0.224 0.497 0.26 0.767 0.042 0.304 0.018 0.614-0.071 0.908-0.099 0.322-0.275 0.616-0.512 0.856l0.005-0.020c0.096 0.296 0.196 0.605 0.3 0.923l0.014 0.046-0.043-0.022-0.961-0.487h0.017l-0.069 0.025c-0.224 0.079-0.462 0.113-0.699 0.101-0.23-0.009-0.457-0.060-0.668-0.152-0.403-0.173-0.739-0.473-0.955-0.854-0.1-0.176-0.172-0.366-0.216-0.564-0.012-0.047-0.021-0.095-0.027-0.144s-0.016-0.095-0.018-0.143c-0.021-0.271 0.008-0.544 0.085-0.805 0.048-0.157 0.115-0.307 0.199-0.448 0.142-0.244 0.335-0.455 0.565-0.62 0.174-0.123 0.367-0.216 0.571-0.276l0.12-0.030c0.035-0.008 0.071-0.015 0.107-0.019 0.056-0.010 0.112-0.016 0.168-0.018l0.104-0.004c0.012-0.002 0.024-0.002 0.036-0.002z"></path>
<path fill="#4caf4f" style="fill: var(--color2, #4caf4f)" d="M6.743 12.037h-0.141l-0.305-0.428v-0.281c0 0-0.218-0.014-0.192 0.354s0 0.274 0 0.274c0 0-0.463 0-0.501 0.042s-0.040 0.488-0.046 0.738c-0.003 0.060 0.014 0.119 0.049 0.169s0.085 0.085 0.142 0.103c0.016 0.005 0.033 0.007 0.050 0.007 0.116 0 0.705-0.094 0.705-0.094h0.243l-0.005-0.883z"></path>
<path fill="#4caf4f" style="fill: var(--color2, #4caf4f)" d="M7.146 11.961l-0.087 0.963h-0.241v-0.943l0.328-0.020z"></path>
<path fill="#4caf4f" style="fill: var(--color2, #4caf4f)" d="M10.019 31.571v-0.652l-1.168-0.008-0.010 0.985 0.072 0.005c0.322 0.021 1.64 0.051 1.856-0.016 0.241-0.075-0.751-0.315-0.751-0.315z"></path>
<path fill="#263238" style="fill: var(--color1, #263238)" d="M10.797 31.825c0 0.011-0.437 0.020-0.976 0.020s-0.976-0.009-0.976-0.020c0-0.011 0.437-0.020 0.976-0.020s0.976 0.009 0.976 0.020z"></path>
<path fill="#263238" style="fill: var(--color1, #263238)" d="M10.039 31.704c-0.010-0.005 0-0.040 0.024-0.076s0.056-0.052 0.063-0.044c0.008 0.008-0.008 0.037-0.031 0.068s-0.046 0.058-0.056 0.053z"></path>
<path fill="#263238" style="fill: var(--color1, #263238)" d="M10.114 31.747c-0.011 0-0.005-0.043 0.017-0.083s0.053-0.065 0.062-0.059c0.008 0.006-0.005 0.040-0.027 0.076s-0.043 0.069-0.053 0.066z"></path>
<path fill="#263238" style="fill: var(--color1, #263238)" d="M9.196 31.822c-0.005 0-0.022-0.014-0.047-0.043-0.031-0.037-0.065-0.071-0.102-0.102-0.037-0.029-0.080-0.048-0.126-0.056-0.036-0.005-0.059 0-0.061-0.005s0.020-0.021 0.062-0.024c0.055-0.001 0.109 0.017 0.152 0.052 0.040 0.033 0.074 0.073 0.101 0.118 0.018 0.034 0.027 0.056 0.022 0.059z"></path>
<path fill="#263238" style="fill: var(--color1, #263238)" d="M10.043 31.581c0.005 0.009-0.014 0.032-0.048 0.044s-0.063 0.008-0.065 0c-0.002-0.008 0.022-0.024 0.051-0.034s0.056-0.019 0.062-0.010z"></path>
<path fill="#263238" style="fill: var(--color1, #263238)" d="M10.025 31.518c0 0.011-0.030 0.021-0.070 0.021s-0.071-0.008-0.070-0.019c0.001-0.011 0.032-0.021 0.070-0.021s0.069 0.008 0.070 0.019z"></path>
<path fill="#4caf4f" style="fill: var(--color2, #4caf4f)" d="M12.895 31.571v-0.652l-1.168-0.008-0.010 0.975 0.072 0.005c0.322 0.021 1.641 0.061 1.856-0.006 0.241-0.075-0.751-0.315-0.751-0.315z"></path>
<path fill="#263238" style="fill: var(--color1, #263238)" d="M13.673 31.826c0 0.011-0.437 0.020-0.976 0.020s-0.975-0.009-0.975-0.020c0-0.011 0.437-0.020 0.975-0.020s0.976 0.009 0.976 0.020z"></path>
<path fill="#263238" style="fill: var(--color1, #263238)" d="M12.916 31.704c-0.009-0.005 0-0.040 0.024-0.076s0.056-0.052 0.063-0.044c0.008 0.008-0.008 0.037-0.031 0.068s-0.046 0.058-0.056 0.053z"></path>
<path fill="#263238" style="fill: var(--color1, #263238)" d="M12.991 31.747c-0.010 0-0.005-0.043 0.018-0.083s0.053-0.065 0.062-0.059c0.008 0.006-0.006 0.040-0.027 0.076s-0.042 0.069-0.053 0.066z"></path>
<path fill="#263238" style="fill: var(--color1, #263238)" d="M12.073 31.822c-0.005 0-0.021-0.014-0.047-0.043-0.031-0.037-0.065-0.071-0.102-0.102-0.037-0.029-0.080-0.048-0.127-0.056-0.035-0.005-0.059 0-0.061-0.005s0.020-0.021 0.062-0.024c0.055-0.001 0.109 0.017 0.152 0.052 0.041 0.033 0.075 0.073 0.101 0.118 0.018 0.034 0.027 0.056 0.022 0.059z"></path>
<path fill="#263238" style="fill: var(--color1, #263238)" d="M12.92 31.581c0.005 0.009-0.014 0.032-0.048 0.044s-0.063 0.008-0.065 0c-0.001-0.008 0.022-0.024 0.051-0.034s0.056-0.019 0.062-0.010z"></path>
<path fill="#263238" style="fill: var(--color1, #263238)" d="M12.903 31.518c0 0.011-0.031 0.021-0.070 0.021s-0.070-0.008-0.069-0.019c0.001-0.011 0.031-0.021 0.069-0.021s0.070 0.008 0.070 0.019z"></path>
<path fill="#ffbe9d" style="fill: var(--color8, #ffbe9d)" d="M17.199 12.222c-0.031-0.031-0.106-0.016-0.106-0.016 0.008-0.044 0.008-0.089 0-0.133-0.014-0.043-0.11-0.034-0.11-0.034-0.004-0.036-0.004-0.072 0-0.108 0.001-0.008-0.001-0.016-0.005-0.023s-0.010-0.013-0.017-0.016c-0.045-0.018-0.094-0.027-0.143-0.026-0.059-0.042 0.179-0.375 0.267-0.482s0.072-0.19-0.006-0.19c-0.054 0-0.331 0.32-0.417 0.428s-0.312 0.406-0.319 0.168c-0.008-0.239-0.104-0.418-0.164-0.449s-0.124 0.041-0.091 0.107c0.029 0.075 0.047 0.154 0.053 0.235 0.008 0.064 0.005 0.129-0.008 0.192-0.025 0.117-0.060 0.232-0.103 0.344h-0.006c0 0-1.663 1.595-1.783 1.709-0.107 0.102-2.269-0.121-2.702-0.167-0.147-0.022-0.296-0.032-0.445-0.031-0.188 0.008-0.222 0.035-0.409 0.037-0.473 0.005-0.946 0.047-1.413 0.124-0.211 0.036-0.409 0.129-0.571 0.27s-0.282 0.323-0.348 0.527c-0.437 1.364-1.426 4.593-1.6 6.407-0.132 0.239-0.251 0.485-0.357 0.737-0.123 0.334-0.093 0.345-0.052 0.353 0.111 0.021 0.238-0.578 0.285-0.434s-0.24 0.714-0.123 0.731c0.152 0.021 0.274-0.61 0.288-0.66s0.090-0.034 0.076 0.013c-0.022 0.067-0.236 0.778-0.087 0.801 0.082 0.012 0.091-0.138 0.091-0.138s0.152-0.681 0.222-0.667c0.069 0.014-0.005 0.415-0.040 0.549s0.014 0.202 0.085 0.169c0.049-0.023 0.165-0.431 0.197-0.563s0.112-0.5 0.219-0.287c0.107 0.213 0.271 0.336 0.338 0.339 0.015-0.002 0.029-0.008 0.041-0.018s0.020-0.023 0.024-0.038c0.004-0.015 0.004-0.030-0.001-0.045s-0.014-0.027-0.026-0.036c-0.058-0.056-0.107-0.12-0.147-0.191-0.036-0.055-0.061-0.115-0.076-0.178-0.031-0.126-0.049-0.256-0.053-0.386l-0.012-0.076c0.171-0.845 0.662-3.326 1.372-4.91l0.291 0.599 0.127 0.444-0.776 1.915 3.309-0.043-0.494-1.901 0.6-1.981c0.648 0.015 2.313 0.039 2.591-0.087 0.349-0.152 2.154-2.432 2.154-2.432 0.118-0.091 0.23-0.189 0.338-0.293 0 0 0.11-0.092 0.043-0.161z"></path>
<path fill="#4caf4f" style="fill: var(--color2, #4caf4f)" d="M8.513 17.705c0.096-0.328 0.589-1.948 0.589-1.948s0.242 1.321 0.178 1.48c-0.059 0.136-0.128 0.268-0.208 0.393-0.559 0.851-0.486 1.277-0.486 1.277l3.38-0.103c0.008-0.472-0.272-1.571-0.33-1.747s0.135-0.749 0.135-0.749 0.381-0.388 0.367-0.588c-0.007-0.179-0.029-0.358-0.066-0.533l2.058 0.076-0.065-1.395-2.955-0.296c-0.103 0.29-1.033 0.148-1.033 0.148-1.004 0.034-1.067 0.218-1.484 0.543s-1.109 3.111-1.109 3.111l1.030 0.33z"></path>
<path fill="#263238" style="fill: var(--color1, #263238)" d="M10.511 17.375c-0.059 0.010-0.118 0.014-0.178 0.009-0.11 0-0.262-0.008-0.429-0.024s-0.318-0.040-0.425-0.062c-0.059-0.008-0.117-0.022-0.173-0.044 0.060 0 0.119 0.006 0.178 0.017 0.108 0.014 0.258 0.033 0.424 0.050s0.317 0.028 0.426 0.036c0.059 0.001 0.119 0.007 0.177 0.019z"></path>
<path fill="#263238" style="fill: var(--color1, #263238)" d="M10.743 17.088c-0.059 0.029-0.121 0.050-0.184 0.063-0.304 0.080-0.618 0.117-0.932 0.11-0.065 0.002-0.13-0.004-0.194-0.018 0.064-0.008 0.129-0.011 0.194-0.010 0.12-0.004 0.284-0.012 0.466-0.034s0.343-0.052 0.457-0.076c0.063-0.017 0.128-0.029 0.194-0.036z"></path>
<path fill="#263238" style="fill: var(--color1, #263238)" d="M11.88 15.806c-0.001 0.058-0.009 0.116-0.024 0.172-0.020 0.106-0.050 0.251-0.089 0.409s-0.076 0.305-0.11 0.404c-0.014 0.057-0.033 0.112-0.059 0.164 0.004-0.058 0.015-0.115 0.032-0.171 0.029-0.119 0.062-0.256 0.098-0.406s0.072-0.287 0.101-0.406c0.010-0.057 0.027-0.113 0.051-0.166z"></path>
<path fill="#263238" style="fill: var(--color1, #263238)" d="M8.549 17.511c-0.176-0.027-0.35-0.068-0.52-0.121-0.174-0.041-0.345-0.094-0.511-0.16 0.176 0.028 0.35 0.068 0.52 0.121 0.174 0.040 0.345 0.094 0.511 0.16z"></path>
<path fill="#263238" style="fill: var(--color1, #263238)" d="M12.108 15.172c-0.029 0.005-0.058 0.005-0.087 0-0.080-0.008-0.158-0.027-0.232-0.056-0.125-0.047-0.238-0.119-0.333-0.213s-0.169-0.205-0.219-0.329c-0.054-0.136-0.077-0.283-0.068-0.429 0.003-0.121 0.039-0.238 0.104-0.34 0.046-0.069 0.114-0.119 0.193-0.143 0.021-0.006 0.043-0.009 0.065-0.008 0.015 0 0.023 0 0.023 0s-0.032 0-0.083 0.021c-0.072 0.027-0.134 0.077-0.175 0.143-0.104 0.163-0.133 0.461-0.022 0.739 0.051 0.131 0.132 0.249 0.236 0.344 0.085 0.078 0.183 0.141 0.289 0.186 0.1 0.039 0.204 0.068 0.309 0.085z"></path>
<path fill="#263238" style="fill: var(--color1, #263238)" d="M13.885 15.237c-0.019-0.234-0.025-0.468-0.018-0.703-0.006-0.234 0.001-0.468 0.021-0.702 0.019 0.233 0.025 0.468 0.018 0.702 0.006 0.234-0.001 0.469-0.021 0.703z"></path>
<path fill="#ffbe9d" style="fill: var(--color8, #ffbe9d)" d="M11.089 13.66c0.008-0.17 0.026-0.362 0.026-0.362s0.421-0.046 0.446-0.481c0.025-0.434 0-1.436 0-1.436l-0.762-0.39-0.846 0.665 0.13 2.172 0.776 0.050c0.059 0.002 0.117-0.020 0.16-0.061s0.068-0.097 0.070-0.156z"></path>
<path fill="#eb996e" style="fill: var(--color9, #eb996e)" d="M11.165 12.473c0 0 0 0.008-0.007 0.018-0.006 0.007-0.013 0.013-0.021 0.017s-0.017 0.005-0.027 0.005c-0.049 0-0.096-0.056-0.113-0.122-0.008-0.032-0.008-0.065 0-0.097 0.002-0.014 0.007-0.027 0.015-0.039s0.019-0.021 0.031-0.027c0.010-0.004 0.022-0.004 0.032 0 0.008 0.004 0.014 0.010 0.018 0.018 0.005 0.013 0 0.021 0 0.021s0-0.008-0.008-0.015c-0.004-0.005-0.010-0.009-0.016-0.011s-0.014-0-0.019 0.003c-0.009 0.006-0.017 0.014-0.023 0.023s-0.008 0.020-0.009 0.031c-0.006 0.028-0.006 0.058 0 0.086 0.015 0.059 0.056 0.107 0.093 0.112 0.007 0.001 0.014 0 0.021-0.002s0.013-0.005 0.019-0.010c0.009-0.006 0.012-0.012 0.014-0.011z"></path>
<path fill="#263238" style="fill: var(--color1, #263238)" d="M11.822 11.146c-0.059-0.2-0.271-0.299-0.465-0.354-0.295-0.084-0.613-0.12-0.902-0.014s-0.634 0.292-0.634 0.61c-0.17-0.014-0.267 0.135-0.335 0.319-0.043 0.112-0.069 0.231-0.076 0.351-0.021 0.416-0.138 0.991-0.408 1.295-0.152 0.17-0.364 0.287-0.45 0.499-0.076 0.184-0.037 0.402-0.107 0.588-0.063 0.164-0.203 0.28-0.305 0.423-0.104 0.162-0.165 0.347-0.178 0.539s0.024 0.384 0.106 0.558c0.082 0.17 0.199 0.32 0.341 0.444s0.309 0.216 0.489 0.273c0.356 0.108 0.736 0.112 1.094 0.011 0.269-0.064 0.519-0.189 0.733-0.363 0.219-0.179 0.369-0.427 0.425-0.704 0.054-0.311-0.033-0.627-0.098-0.937-0.203-0.978-0.145-1.029 0.111-1.936 0.006-0.016 0.009-0.033 0.014-0.049s0.007-0.024 0.010-0.036c0.007-0.036 0.011-0.072 0.011-0.109-0.037 0.014-0.078 0.017-0.117 0.008s-0.075-0.028-0.103-0.056c-0.028-0.030-0.048-0.067-0.057-0.107s-0.007-0.082 0.006-0.121c0.018-0.043 0.045-0.082 0.079-0.113s0.074-0.056 0.118-0.072c0.085-0.035 0.175-0.053 0.258-0.092 0.176-0.084 0.298-0.258 0.381-0.44 0.068-0.126 0.089-0.273 0.059-0.413z"></path>
<path fill="#4caf4f" style="fill: var(--color2, #4caf4f)" d="M11.195 12.494c0.016 0.024 0.029 0.049 0.040 0.076 0.023 0.048 0.053 0.116 0.087 0.194l0.006 0.014h-0.016l-0.076 0.007c-0.053 0-0.097 0.010-0.149 0.009-0.005-0.001-0.009-0.003-0.012-0.006s-0.006-0.007-0.008-0.011c-0.002-0.007-0.002-0.014 0-0.021 0.002-0.010 0.004-0.020 0.007-0.030l0.014-0.054c0.007-0.036 0.018-0.071 0.032-0.105-0.001 0.037-0.007 0.073-0.016 0.109l-0.011 0.054c-0.004 0.018-0.011 0.047 0 0.044 0.038 0 0.092-0.008 0.143-0.011l0.076-0.007-0.010 0.017c-0.033-0.076-0.060-0.148-0.076-0.197-0.014-0.025-0.024-0.053-0.031-0.081z"></path>
<path fill="#263238" style="fill: var(--color1, #263238)" d="M8.586 18.908l3.38-0.103 1.471 5.741-0.271 6.586h-1.787l0.219-6.445-1.307-3.997 0.201 10.698-1.806 0.027-0.19-10.055c-0.008-0.28-0.1-0.91-0.066-1.187l0.155-1.263z"></path>
<path fill="#455a64" style="fill: var(--color3, #455a64)" d="M10.74 20.771c-0.055 0.004-0.111 0-0.165-0.010-0.102-0.012-0.242-0.034-0.395-0.064s-0.29-0.066-0.389-0.094c-0.053-0.012-0.104-0.030-0.152-0.055 0-0.011 0.248 0.048 0.553 0.11s0.55 0.101 0.549 0.113z"></path>
<path fill="#455a64" style="fill: var(--color3, #455a64)" d="M13.148 30.771c0 0.011-0.405 0.020-0.904 0.020s-0.905-0.009-0.905-0.020c0-0.011 0.405-0.020 0.905-0.020s0.904 0.008 0.904 0.020z"></path>
<path fill="#455a64" style="fill: var(--color3, #455a64)" d="M10.476 31.109c0 0.011-0.393 0.020-0.878 0.020s-0.877-0.008-0.877-0.020 0.393-0.020 0.877-0.020c0.484 0 0.878 0.009 0.878 0.020z"></path>
<path fill="#455a64" style="fill: var(--color3, #455a64)" d="M10.243 31.082c-0.011 0-0.058-2.337-0.106-5.22s-0.076-5.222-0.066-5.222c0.010 0 0.059 2.336 0.106 5.221s0.078 5.221 0.066 5.221z"></path>
<path fill="#455a64" style="fill: var(--color3, #455a64)" d="M12.908 30.771c-0.001-0.010-0.001-0.021 0-0.031v-0.091c0-0.082 0.006-0.2 0.011-0.351 0.011-0.305 0.026-0.747 0.045-1.29 0.041-1.091 0.099-2.596 0.162-4.256 0-0.016 0-0.031 0-0.045v0.005c-0.4-1.6-0.762-3.053-1.025-4.104l-0.305-1.243c-0.035-0.146-0.062-0.259-0.081-0.338-0.009-0.037-0.015-0.066-0.021-0.088-0.003-0.010-0.005-0.020-0.005-0.030 0.004 0.010 0.007 0.020 0.009 0.030 0.006 0.021 0.014 0.050 0.024 0.087 0.021 0.076 0.050 0.192 0.088 0.337 0.076 0.294 0.184 0.718 0.318 1.24 0.265 1.050 0.631 2.499 1.036 4.101v0.005c0 0.014 0 0.030 0 0.045-0.068 1.661-0.13 3.164-0.175 4.255-0.024 0.543-0.043 0.983-0.057 1.289-0.008 0.152-0.014 0.268-0.018 0.351 0 0.039-0.005 0.069-0.005 0.091 0 0.010-0.001 0.021-0.003 0.031z"></path>
<path fill="#455a64" style="fill: var(--color3, #455a64)" d="M12.325 24.572c-0.128 0.042-0.261 0.072-0.395 0.088-0.165 0.028-0.305 0.048-0.368 0.051v-0.015c0.021 0.006 0.031 0.010 0.031 0.013s-0.013 0-0.034 0h-0.046l0.046-0.014c0.059-0.018 0.2-0.047 0.364-0.076 0.132-0.029 0.266-0.044 0.402-0.046z"></path>
<path fill="#455a64" style="fill: var(--color3, #455a64)" d="M12.293 24.791c-0.119 0.005-0.238 0-0.356-0.016-0.119-0.002-0.238-0.015-0.354-0.039 0.238-0.019 0.478-0.001 0.71 0.055z"></path>
<path fill="#000" style="fill: var(--color6, #000)" opacity="0.2" d="M8.572 19.029c0.040 0.051 0.090 0.094 0.148 0.124s0.121 0.049 0.186 0.053c0.136 0.016 0.274 0.014 0.409-0.008 0.873-0.097 1.797-0.186 2.651-0.394-1.106 0.062-2.274 0.041-3.38 0.103l-0.011 0.094z"></path>
<path fill="#000" style="fill: var(--color6, #000)" opacity="0.2" d="M9.711 20.587l0.623 2.419-0.043-2.317-0.58-0.102z"></path>
</symbol>
<symbol id="icon-pay" viewBox="0 0 40 32">
<path stroke-linejoin="miter" stroke-linecap="butt" stroke-miterlimit="4" stroke-width="0.9412" d="M6.353 0.941h26.824c1.56 0 3.056 0.62 4.159 1.723s1.723 2.599 1.723 4.159v18.353c0 1.56-0.62 3.056-1.723 4.159s-2.599 1.723-4.159 1.723h-26.824c-1.56 0-3.056-0.62-4.159-1.723s-1.723-2.599-1.723-4.159v-18.353c0-1.56 0.62-3.056 1.723-4.159s2.599-1.723 4.159-1.723zM2.353 25.176c0 1.061 0.422 2.078 1.172 2.828s1.767 1.172 2.828 1.172h26.824c1.061 0 2.078-0.422 2.828-1.172s1.172-1.767 1.172-2.828v-13.882h-34.824v13.882zM26.824 20.706h4.235c0.25 0 0.489 0.099 0.665 0.276s0.276 0.416 0.276 0.665-0.099 0.489-0.276 0.665c-0.176 0.177-0.416 0.276-0.665 0.276h-4.235c-0.25 0-0.489-0.099-0.665-0.276s-0.276-0.416-0.276-0.665 0.099-0.489 0.276-0.665c0.176-0.177 0.416-0.276 0.665-0.276zM6.353 2.824c-1.061 0-2.078 0.422-2.828 1.172s-1.172 1.767-1.172 2.828v2.588h34.824v-2.588c0-1.061-0.422-2.078-1.172-2.828s-1.767-1.172-2.828-1.172h-26.824z"></path>
</symbol>
<symbol id="icon-finger" viewBox="0 0 29 32">
<path d="M27.789 31.158v-3.368c0-1.787-0.71-3.5-1.973-4.764s-2.977-1.973-4.764-1.973h-1.684c-0.447 0-0.875-0.177-1.191-0.493s-0.493-0.744-0.493-1.191v-8.421c0-0.893-0.355-1.75-0.987-2.382s-1.488-0.987-2.382-0.987-1.75 0.355-2.382 0.987c-0.632 0.632-0.987 1.488-0.987 2.382v15.158l-4.042-5.389c-0.314-0.418-0.721-0.758-1.188-0.992s-0.983-0.356-1.506-0.356h-0.731c-1.457 0-2.637 1.181-2.637 2.637 0 0.478 0.13 0.948 0.376 1.357l4.677 7.795zM14.316 2.526v0zM24.421 12.632v0zM2.526 12.632v0zM6.472 4.788v0zM22.159 4.788v0z"></path>
<path stroke-linejoin="round" stroke-linecap="round" stroke-miterlimit="4" stroke-width="1.6842" d="M27.789 31.158v-3.368c0-1.787-0.71-3.5-1.973-4.764s-2.977-1.973-4.764-1.973h-1.684c-0.447 0-0.875-0.177-1.191-0.493s-0.493-0.744-0.493-1.191v-8.421c0-0.893-0.355-1.75-0.987-2.382s-1.488-0.987-2.382-0.987v0c-0.893 0-1.75 0.355-2.382 0.987s-0.987 1.488-0.987 2.382v15.158l-4.042-5.389c-0.314-0.418-0.721-0.758-1.188-0.992s-0.983-0.356-1.506-0.356h-0.731c-1.457 0-2.637 1.181-2.637 2.637 0 0.478 0.13 0.948 0.376 1.357l4.677 7.795M14.316 2.526v-1.684M24.421 12.632h1.684M2.526 12.632h1.684M6.472 4.788l-1.191-1.191M22.159 4.788l1.191-1.191"></path>
</symbol>
<symbol id="icon-rafik" viewBox="0 0 43 32">
<path fill="#f5f5f5" style="fill: var(--color10, #f5f5f5)" d="M21.473 32c9.197 0 16.653-0.435 16.653-0.972s-7.456-0.972-16.653-0.972c-9.197 0-16.653 0.435-16.653 0.972s7.456 0.972 16.653 0.972z"></path>
<path fill="#e58a7b" style="fill: var(--color11, #e58a7b)" d="M29.997 9.313l-0.852-0.344c0 0-1.124 2.050-1.446 2.154-0.438 0.141-1.345 0.533-1.883 0.601-0.073 0.086-0.192 0.353-0.181 0.45 0.722 0.241 2.31-0.079 2.65-0.332 0.774-0.573 1.713-2.53 1.713-2.53z"></path>
<path fill="#4caf4f" style="fill: var(--color2, #4caf4f)" d="M30.259 8.847c0.159 0.587-0.702 1.767-0.702 1.767l-1.128-0.632c0 0 0.211-0.485 0.469-0.979 0.413-0.798 1.179-0.825 1.361-0.155z"></path>
<path fill="#000" style="fill: var(--color6, #000)" opacity="0.2" d="M30.259 8.847c0.159 0.587-0.702 1.767-0.702 1.767l-1.128-0.632c0 0 0.211-0.485 0.469-0.979 0.413-0.798 1.179-0.825 1.361-0.155z"></path>
<path fill="#000" style="fill: var(--color6, #000)" opacity="0.2" d="M28.877 10.234l0.444 0.249 0.078-1.363c-0.259 0.198-0.441 0.796-0.522 1.114z"></path>
<path fill="#4caf4f" style="fill: var(--color2, #4caf4f)" d="M29.517 8.405c0 0-0.878 1.953-0.366 5.59h3.459c0.055-0.531-0.127-3.121 0.532-5.622-0.379-0.074-0.763-0.123-1.149-0.147-0.489-0.028-0.98-0.028-1.47 0-0.339 0.034-0.675 0.094-1.006 0.179z"></path>
<path fill="#000" style="fill: var(--color6, #000)" opacity="0.2" d="M29.517 8.405c0 0-0.878 1.953-0.366 5.59h3.459c0.055-0.531-0.127-3.121 0.532-5.622-0.379-0.074-0.763-0.123-1.149-0.147-0.489-0.028-0.98-0.028-1.47 0-0.339 0.034-0.675 0.094-1.006 0.179z"></path>
<path fill="#e8ecf1" style="fill: var(--color12, #e8ecf1)" d="M28.715 31.105c-0.005 0.093 1.306 0.168 2.929 0.168s2.944-0.075 2.949-0.168c0.005-0.093-1.306-0.167-2.929-0.167s-2.943 0.075-2.949 0.167z"></path>
<path fill="#e58a7b" style="fill: var(--color11, #e58a7b)" d="M31.024 28.667l-0.613 0.238 0.528 1.365 0.613-0.237-0.528-1.365z"></path>
<path fill="#e58a7b" style="fill: var(--color11, #e58a7b)" d="M33.759 30.444h-0.647l-0.237-1.497h0.647l0.237 1.497z"></path>
<path fill="#263238" style="fill: var(--color1, #263238)" d="M33.068 30.369h0.727c0.013 0 0.025 0.005 0.034 0.013s0.016 0.020 0.018 0.032l0.094 0.575c0.002 0.015 0.001 0.029-0.003 0.043s-0.011 0.027-0.021 0.038c-0.010 0.011-0.022 0.020-0.035 0.026s-0.028 0.009-0.042 0.009c-0.253-0.004-0.375-0.020-0.695-0.020-0.197 0-0.601 0.021-0.874 0.021s-0.291-0.268-0.179-0.293c0.505-0.109 0.701-0.258 0.869-0.402 0.030-0.026 0.068-0.040 0.107-0.040z"></path>
<path fill="#263238" style="fill: var(--color1, #263238)" d="M30.921 30.148l0.687-0.201c0.012-0.003 0.025-0.003 0.037 0.002s0.021 0.014 0.027 0.025l0.258 0.515c0.006 0.013 0.009 0.027 0.009 0.042s-0.003 0.029-0.009 0.042c-0.006 0.013-0.015 0.024-0.026 0.034s-0.024 0.016-0.038 0.020c-0.25 0.069-0.417 0.111-0.73 0.202-0.216 0.063-0.435 0.165-0.648 0.233-0.148 0.047-0.495 0.049-0.674 0.049-0.265 0-0.325-0.28-0.21-0.293 0.288-0.032 0.326-0.017 0.485-0.097 0.26-0.114 0.496-0.276 0.694-0.479 0.037-0.043 0.085-0.075 0.139-0.093z"></path>
<path fill="#e58a7b" style="fill: var(--color11, #e58a7b)" d="M25.924 11.722l-0.711-0.298-0.293 0.788c0.291 0.044 0.588 0.044 0.879 0l0.125-0.49z"></path>
<path fill="#e58a7b" style="fill: var(--color11, #e58a7b)" d="M24.684 11.403l-0.019 0.524 0.255 0.284 0.293-0.789-0.529-0.019z"></path>
<path fill="#cf6f64" style="fill: var(--color13, #cf6f64)" d="M31.108 28.783l-0.615 0.238 0.273 0.706 0.615-0.238-0.273-0.706z"></path>
<path fill="#cf6f64" style="fill: var(--color13, #cf6f64)" d="M33.522 28.947h-0.647l0.123 0.772h0.647l-0.123-0.772z"></path>
<path fill="#000" style="fill: var(--color6, #000)" opacity="0.2" d="M29.041 13.012c0.013 0.155 0.028 0.314 0.046 0.477l2.572-0.835c0.402-0.119 0.751-0.371 0.989-0.715 0.010-0.229 0.023-0.471 0.043-0.722 0.009-0.122 0.019-0.247 0.030-0.375s0.027-0.268 0.043-0.404l-3.723 2.573z"></path>
<path fill="#fff" style="fill: var(--color4, #fff)" d="M29.881 10.194l-0.086-0.010c0.051-0.429 0.371-0.768 0.709-0.759v0.086c-0.296-0.006-0.577 0.299-0.623 0.684z"></path>
<path fill="#fff" style="fill: var(--color4, #fff)" d="M30.339 10.987h-0.015v-0.086c0.296 0.011 0.573-0.297 0.618-0.681l0.086 0.010c-0.046 0.42-0.356 0.757-0.69 0.757z"></path>
<path fill="#e58a7b" style="fill: var(--color11, #e58a7b)" d="M31.945 6.571c-0.121 0.473-0.264 1.34 0.048 1.655 0 0-0.218 0.48-1.097 0.48-0.803 0-0.373-0.48-0.373-0.48 0.534-0.125 0.544-0.515 0.473-0.885l0.948-0.77z"></path>
<path fill="#cf6f64" style="fill: var(--color13, #cf6f64)" d="M31.558 6.885l-0.561 0.456c0.017 0.085 0.027 0.171 0.030 0.258 0.164 0.163 0.493-0.25 0.526-0.461 0.017-0.083 0.018-0.169 0.004-0.253z"></path>
<path fill="#cf6f64" style="fill: var(--color13, #cf6f64)" d="M30.033 6.565c0.039 0.068 0.092 0.127 0.154 0.173s0.135 0.079 0.211 0.097c0.206 0.046 0.309-0.144 0.253-0.335-0.051-0.172-0.22-0.403-0.429-0.363-0.045 0.009-0.087 0.029-0.123 0.058s-0.064 0.066-0.082 0.108-0.027 0.088-0.024 0.133c0.003 0.046 0.017 0.090 0.040 0.129z"></path>
<path fill="#263238" style="fill: var(--color1, #263238)" d="M30.374 5.050c-0.321 0.147-0.435 1.423-0.031 1.612s0.639-1.891 0.031-1.612z"></path>
<path fill="#e58a7b" style="fill: var(--color11, #e58a7b)" d="M32.042 5.859c-0.077 0.641-0.086 1.018-0.429 1.346-0.106 0.109-0.241 0.186-0.389 0.223s-0.303 0.033-0.448-0.012c-0.145-0.045-0.275-0.13-0.376-0.245s-0.167-0.255-0.193-0.405c-0.104-0.575 0.040-1.526 0.682-1.781 0.135-0.060 0.283-0.082 0.43-0.065s0.286 0.073 0.403 0.162 0.209 0.208 0.265 0.344c0.056 0.136 0.075 0.285 0.054 0.431z"></path>
<path fill="#263238" style="fill: var(--color1, #263238)" d="M30.987 5.382c0.476-0.121 0.825-0.204 0.7 0.192-0.166 0.529-0.365 1.041-0.098 1.064 0.163 0.015 0.885-0.291 0.793-0.601-0.080-0.27 0.258-0.344 0.318-0.48 0.222-0.495-0.414-0.429-0.301-0.73s-0.515-0.785-0.859-0.544c-0.559 0.39-1.519 0.384-1.014-0.258 0.362-0.458-0.284-0.364-0.284-0.364s0.39 0.231-0.266 0.588c-0.694 0.381-0.058 1.406 1.011 1.132z"></path>
<path fill="#e58a7b" style="fill: var(--color11, #e58a7b)" d="M32.295 6.565c-0.094 0.136-0.235 0.232-0.396 0.27-0.212 0.046-0.294-0.144-0.214-0.335 0.071-0.172 0.267-0.403 0.47-0.363s0.249 0.26 0.14 0.429z"></path>
<path fill="#4caf4f" style="fill: var(--color2, #4caf4f)" d="M29.151 13.995c0 0-0.581 5.196-0.626 7.168-0.046 2.051 1.968 8.451 1.968 8.451l1.031-0.429c0 0-1.202-5.847-1.031-7.862 0.182-2.196 0.935-7.325 0.935-7.325l-2.276-0.003z"></path>
<path fill="#000" style="fill: var(--color6, #000)" opacity="0.2" d="M30.594 15.422c-0.463 0.96-0.151 2.859 0.1 3.985 0.095-0.795 0.209-1.657 0.316-2.455-0.010-1.226-0.106-2.174-0.416-1.53z"></path>
<path fill="#4caf4f" style="fill: var(--color2, #4caf4f)" d="M31.478 28.845c0.005 0 0.122 0.328 0.122 0.328l-1.189 0.5-0.187-0.349 1.254-0.479z"></path>
<path fill="#4caf4f" style="fill: var(--color2, #4caf4f)" d="M30.379 13.995c0 0 0.444 4.942 0.738 6.793 0.323 2.028 1.589 8.782 1.589 8.782h1.184c0 0-0.709-6.59-0.843-8.598-0.146-2.178-0.436-6.977-0.436-6.977h-2.232z"></path>
<path fill="#4caf4f" style="fill: var(--color2, #4caf4f)" d="M33.908 29.261c0.005 0 0.039 0.331 0.039 0.331h-1.302l-0.093-0.38 1.355 0.049z"></path>
<path fill="#000" style="fill: var(--color6, #000)" opacity="0.2" d="M33.455 28.87c-0.003 0-0.005-0.001-0.007-0.003s-0.003-0.004-0.004-0.007c-0.007-0.060-0.647-6.012-0.767-7.816-0.131-1.957-0.393-6.297-0.396-6.34-0-0.001 0-0.003 0.001-0.004s0.001-0.003 0.002-0.004c0.001-0.001 0.002-0.002 0.004-0.002s0.003-0.001 0.004-0.001 0.005 0.001 0.008 0.003c0.002 0.002 0.003 0.004 0.004 0.007 0 0.044 0.265 4.38 0.396 6.34 0.12 1.804 0.76 7.752 0.766 7.816 0 0.001 0 0.003-0 0.004s-0.001 0.003-0.002 0.004c-0.001 0.001-0.002 0.002-0.003 0.003s-0.003 0.001-0.004 0.001v-0.002z"></path>
<path fill="#263238" style="fill: var(--color1, #263238)" d="M31.060 6.037c0 0.052-0.033 0.094-0.067 0.094s-0.059-0.042-0.056-0.094c0.003-0.052 0.033-0.094 0.067-0.094s0.059 0.043 0.056 0.094z"></path>
<path fill="#263238" style="fill: var(--color1, #263238)" d="M30.471 6.037c0 0.052-0.033 0.094-0.067 0.094s-0.059-0.042-0.057-0.094c0.003-0.052 0.033-0.094 0.068-0.094s0.059 0.043 0.056 0.094z"></path>
<path fill="#df5753" style="fill: var(--color14, #df5753)" d="M30.656 6.064c-0.072 0.16-0.164 0.31-0.275 0.446 0.086 0.086 0.246 0.046 0.246 0.046l0.028-0.492z"></path>
<path fill="#263238" style="fill: var(--color1, #263238)" d="M30.672 6.775c-0.002 0-0.004-0-0.006-0.001s-0.003-0.002-0.005-0.003c-0.001-0.001-0.002-0.003-0.003-0.005s-0.001-0.004-0.001-0.006 0.002-0.008 0.005-0.011 0.007-0.004 0.011-0.004c0.066 0 0.131-0.014 0.19-0.042s0.112-0.069 0.153-0.12c0.003-0.003 0.007-0.004 0.011-0.004s0.008 0.001 0.011 0.004c0.003 0.003 0.004 0.007 0.004 0.011s-0.002 0.008-0.004 0.011c-0.044 0.054-0.1 0.097-0.164 0.127s-0.133 0.045-0.203 0.044z"></path>
<path fill="#263238" style="fill: var(--color1, #263238)" d="M31.165 5.879c-0.004 0.002-0.009 0.003-0.013 0.003s-0.009-0.001-0.013-0.003c-0.032-0.021-0.069-0.034-0.107-0.038s-0.076 0.001-0.112 0.015c-0.003 0.002-0.007 0.003-0.011 0.003s-0.008-0-0.011-0.002c-0.004-0.001-0.007-0.003-0.010-0.006s-0.005-0.006-0.007-0.009-0.003-0.016-0-0.024c0.003-0.008 0.009-0.014 0.017-0.017 0.045-0.018 0.094-0.026 0.142-0.021s0.095 0.021 0.136 0.047c0.003 0.002 0.006 0.005 0.008 0.008s0.004 0.007 0.004 0.011c0.001 0.004 0.001 0.008-0 0.012s-0.002 0.008-0.005 0.011c-0.004 0.005-0.010 0.008-0.016 0.010z"></path>
<path fill="#263238" style="fill: var(--color1, #263238)" d="M30.243 5.707c-0.005-0.001-0.009-0.003-0.012-0.007s-0.005-0.006-0.007-0.010-0.002-0.008-0.002-0.012c0-0.004 0.001-0.008 0.002-0.012s0.004-0.007 0.007-0.010c0.033-0.037 0.074-0.066 0.12-0.084s0.095-0.026 0.145-0.022c0.004 0.001 0.008 0.002 0.011 0.004s0.006 0.005 0.009 0.008c0.002 0.003 0.004 0.007 0.005 0.011s0.001 0.008-0 0.012-0.007 0.015-0.013 0.020c-0.007 0.005-0.015 0.007-0.023 0.006-0.039-0.002-0.078 0.004-0.114 0.019s-0.068 0.038-0.094 0.067c-0.004 0.004-0.009 0.008-0.015 0.009s-0.012 0.002-0.017 0z"></path>
<path fill="#e58a7b" style="fill: var(--color11, #e58a7b)" d="M33.474 9.218l-0.893-0.238c0 0-0.876 2.157-1.186 2.297-0.421 0.192-1.487 0.859-1.94 1.174-0.025 0.107-0.005 0.392 0.052 0.47 0.773-0.141 2.253-0.71 2.562-1 0.705-0.661 1.406-2.703 1.406-2.703z"></path>
<path fill="#4caf4f" style="fill: var(--color2, #4caf4f)" d="M32.851 30.483c-0.044 0.003-0.087-0.008-0.123-0.033-0.011-0.010-0.019-0.023-0.024-0.037s-0.006-0.029-0.003-0.044c0.001-0.009 0.004-0.018 0.009-0.025s0.012-0.014 0.021-0.017c0.072-0.037 0.274 0.091 0.297 0.106 0.003 0.002 0.005 0.004 0.006 0.007s0.001 0.006 0 0.009c-0.001 0.003-0.002 0.006-0.004 0.008s-0.005 0.004-0.008 0.005c-0.056 0.014-0.113 0.021-0.171 0.023zM32.765 30.349c-0.007-0.001-0.013-0.001-0.020 0-0.003 0.002-0.006 0.004-0.008 0.008s-0.003 0.007-0.002 0.011c-0.002 0.010-0.002 0.020 0.001 0.030s0.009 0.019 0.016 0.026c0.033 0.030 0.118 0.033 0.228 0.012-0.066-0.043-0.14-0.073-0.218-0.086h0.003z"></path>
<path fill="#4caf4f" style="fill: var(--color2, #4caf4f)" d="M33.017 30.46c-0.002 0.001-0.005 0.001-0.007 0-0.065-0.036-0.186-0.178-0.167-0.25 0.003-0.011 0.009-0.022 0.018-0.029s0.021-0.011 0.032-0.011c0.011-0.002 0.023-0.001 0.034 0.003s0.021 0.009 0.030 0.017c0.071 0.061 0.076 0.248 0.076 0.258 0 0.003-0 0.006-0.002 0.008s-0.004 0.004-0.006 0.006c-0.003 0.001-0.006 0-0.009-0.001zM32.902 30.198h-0.006c-0.020 0-0.022 0.011-0.023 0.015-0.010 0.042 0.066 0.149 0.13 0.2-0-0.073-0.023-0.143-0.064-0.203-0.010-0.009-0.023-0.013-0.036-0.013z"></path>
<path fill="#4caf4f" style="fill: var(--color2, #4caf4f)" d="M30.57 30.375c-0.053 0.018-0.11 0.018-0.162 0-0.012-0.006-0.022-0.016-0.029-0.027s-0.012-0.024-0.013-0.038c-0.001-0.008 0-0.017 0.003-0.025s0.008-0.015 0.015-0.020c0.069-0.062 0.35 0 0.381 0.012 0.003 0.001 0.006 0.003 0.008 0.005s0.003 0.006 0.003 0.009c0 0.003-0.001 0.006-0.002 0.009s-0.004 0.005-0.007 0.006c-0.063 0.029-0.129 0.052-0.196 0.070zM30.43 30.273c-0.010 0.002-0.019 0.006-0.027 0.013-0.003 0.002-0.005 0.005-0.006 0.008s-0.001 0.007-0.001 0.010c0.001 0.009 0.003 0.018 0.008 0.025s0.011 0.014 0.019 0.018c0.046 0.024 0.151 0.005 0.288-0.052-0.092-0.023-0.187-0.031-0.282-0.022z"></path>
<path fill="#4caf4f" style="fill: var(--color2, #4caf4f)" d="M30.764 30.306h-0.007c-0.086-0.015-0.258-0.114-0.263-0.188 0-0.017 0.008-0.041 0.049-0.055 0.014-0.005 0.029-0.007 0.043-0.006s0.029 0.005 0.042 0.011c0.093 0.046 0.142 0.21 0.144 0.218 0.001 0.003 0 0.005-0 0.008s-0.002 0.005-0.004 0.007c-0.001 0.002-0.003 0.004-0.005 0.005zM30.56 30.088h-0.009c-0.027 0.009-0.027 0.021-0.027 0.024 0 0.045 0.125 0.126 0.211 0.154-0.020-0.069-0.062-0.129-0.12-0.172-0.017-0.009-0.037-0.011-0.056-0.006z"></path>
<path fill="#e58a7b" style="fill: var(--color11, #e58a7b)" d="M29.528 12.4l-0.896 0.412-0.104 0.258 0.331 0.222c0 0 0.618-0.067 0.795-0.465l-0.125-0.428z"></path>
<path fill="#263238" style="fill: var(--color1, #263238)" d="M29.565 12.935c-0.020-0.172-0.077-0.338-0.167-0.486l0.142-0.107c0.107 0.171 0.175 0.363 0.199 0.563l-0.174 0.030z"></path>
<path fill="#263238" style="fill: var(--color1, #263238)" d="M29.718 12.522c0.019 0.030 0.028 0.065 0.027 0.1s-0.014 0.069-0.036 0.097c-0.022 0.028-0.051 0.049-0.085 0.059s-0.070 0.010-0.103-0c-0.034-0.011-0.063-0.032-0.085-0.060s-0.034-0.062-0.035-0.097c-0.001-0.035 0.008-0.070 0.027-0.1s0.047-0.053 0.080-0.066c0.037-0.019 0.079-0.022 0.119-0.010s0.072 0.040 0.091 0.077z"></path>
<path fill="#e58a7b" style="fill: var(--color11, #e58a7b)" d="M28.026 13.146l0.119 0.12 0.804-0.344-0.318-0.11-0.606 0.333z"></path>
<path fill="#000" style="fill: var(--color6, #000)" opacity="0.2" d="M31.478 28.845c0.005 0 0.122 0.328 0.122 0.328l-1.189 0.5-0.187-0.349 1.254-0.479z"></path>
<path fill="#000" style="fill: var(--color6, #000)" opacity="0.2" d="M33.908 29.261c0.005 0 0.039 0.331 0.039 0.331h-1.302l-0.093-0.38 1.355 0.049z"></path>
<path fill="#4caf4f" style="fill: var(--color2, #4caf4f)" d="M33.707 8.97c0.236 0.762-0.687 1.804-0.687 1.804l-1.276-0.521c0.151-0.44 0.326-0.872 0.522-1.294 0.392-0.844 1.202-0.758 1.44 0.011z"></path>
<path fill="#000" style="fill: var(--color6, #000)" opacity="0.2" d="M33.707 8.97c0.236 0.762-0.687 1.804-0.687 1.804l-1.276-0.521c0.151-0.44 0.326-0.872 0.522-1.294 0.392-0.844 1.202-0.758 1.44 0.011z"></path>
<path fill="#4caf4f" style="fill: var(--color2, #4caf4f)" d="M21.033 1.337h-0.549v0.088h0.549v-0.088z"></path>
<path fill="#4caf4f" style="fill: var(--color2, #4caf4f)" d="M28.138 4.839l-0.066 1.474 0.088 0.004 0.066-1.474-0.088-0.004z"></path>
<path fill="#4caf4f" style="fill: var(--color2, #4caf4f)" d="M27.967 1.734h-10.135l-0.943 21.105h10.135l0.943-21.105z"></path>
<path fill="#fafafa" style="fill: var(--color15, #fafafa)" opacity="0.56" d="M27.665 2.024h-10.135l-0.943 21.105h10.135l0.943-21.105z"></path>
<path fill="#4caf4f" style="fill: var(--color2, #4caf4f)" opacity="0.07" d="M27.362 2.314h-10.135l-0.944 21.105h10.135l0.944-21.105z"></path>
<path fill="#fff" style="fill: var(--color4, #fff)" d="M26.209 11.519h-8.651l-0.072 1.615h8.651l0.072-1.615z"></path>
<path fill="#4caf4f" style="fill: var(--color2, #4caf4f)" d="M22.315 10.34h-4.705l-0.032 0.722h4.705l0.032-0.722z"></path>
<path fill="#fff" style="fill: var(--color4, #fff)" d="M26.014 15.877h-8.651l-0.072 1.615h8.651l0.072-1.615z"></path>
<path fill="#4caf4f" style="fill: var(--color2, #4caf4f)" opacity="0.47" d="M24.427 19.672h-5.817l-0.087 1.935h5.817l0.087-1.935z"></path>
<path fill="#fff" style="fill: var(--color4, #fff)" d="M24.038 21.908h-5.817c-0.003 0.001-0.005 0.001-0.008 0-0.001-0.003-0.001-0.005 0-0.008l0.086-1.936c0-0.001 0-0.003 0.001-0.004s0.001-0.002 0.002-0.003 0.002-0.002 0.003-0.002 0.003-0.001 0.004-0h5.817c0.001-0.001 0.002-0.001 0.003-0.001s0.002 0 0.003 0.001c0.001 0.001 0.001 0.002 0.001 0.003s-0 0.002-0.001 0.003l-0.084 1.94c-0.001 0.002-0.003 0.004-0.005 0.005s-0.004 0.001-0.007 0.001zM18.231 21.888h5.797l0.086-1.915h-5.797l-0.086 1.915z"></path>
<path fill="#4caf4f" style="fill: var(--color2, #4caf4f)" d="M21.299 14.698h-3.884l-0.032 0.723h3.883l0.033-0.723z"></path>
<path fill="#fff" style="fill: var(--color4, #fff)" d="M24.317 6.303c-0.022 0.47-0.189 0.921-0.478 1.293-0.214 0.28-0.489 0.508-0.805 0.665s-0.663 0.24-1.016 0.243c-0.285 0.002-0.567-0.054-0.83-0.165s-0.499-0.275-0.696-0.481c-0.197-0.206-0.349-0.45-0.448-0.718s-0.142-0.552-0.127-0.837c0.030-0.591 0.285-1.147 0.712-1.556s0.994-0.639 1.586-0.644c0.285-0.003 0.568 0.053 0.831 0.164s0.5 0.275 0.697 0.481 0.35 0.451 0.449 0.718c0.099 0.268 0.142 0.553 0.126 0.837z"></path>
<path fill="#4caf4f" style="fill: var(--color2, #4caf4f)" d="M24.524 4.563c-0.006 0.125-0.050 0.245-0.127 0.344-0.057 0.074-0.13 0.135-0.214 0.177s-0.176 0.064-0.27 0.065c-0.091 0.001-0.181-0.021-0.261-0.063s-0.15-0.103-0.201-0.178c-0.068-0.101-0.102-0.222-0.096-0.344 0.008-0.157 0.076-0.305 0.19-0.413s0.264-0.17 0.421-0.171c0.076-0.001 0.151 0.014 0.221 0.044s0.133 0.073 0.185 0.128 0.093 0.12 0.119 0.191c0.026 0.071 0.038 0.147 0.034 0.222z"></path>
<path fill="#263238" style="fill: var(--color1, #263238)" d="M18.49 12.326c-0.004 0.069-0.034 0.134-0.085 0.182s-0.117 0.075-0.186 0.076c-0.033 0-0.067-0.006-0.098-0.019s-0.059-0.032-0.082-0.056c-0.023-0.024-0.041-0.053-0.053-0.084s-0.017-0.065-0.015-0.098c0.004-0.069 0.034-0.135 0.084-0.183s0.117-0.075 0.186-0.075c0.033-0 0.067 0.006 0.097 0.019s0.059 0.032 0.082 0.056 0.041 0.053 0.053 0.084c0.012 0.031 0.017 0.065 0.015 0.098z"></path>
<path fill="#263238" style="fill: var(--color1, #263238)" d="M19.648 12.326c-0.004 0.069-0.034 0.134-0.084 0.182s-0.117 0.075-0.186 0.075c-0.033 0-0.067-0.006-0.097-0.019s-0.059-0.032-0.082-0.056-0.041-0.053-0.053-0.084c-0.012-0.031-0.017-0.065-0.015-0.098 0.004-0.069 0.034-0.134 0.084-0.182s0.117-0.075 0.186-0.075c0.033-0.001 0.067 0.006 0.098 0.019s0.059 0.032 0.082 0.056c0.023 0.024 0.041 0.053 0.053 0.084s0.017 0.065 0.015 0.098z"></path>
<path fill="#263238" style="fill: var(--color1, #263238)" d="M20.806 12.326c-0.004 0.069-0.034 0.134-0.084 0.182s-0.117 0.075-0.186 0.075c-0.033 0-0.067-0.006-0.097-0.019s-0.059-0.032-0.082-0.056c-0.023-0.024-0.041-0.053-0.053-0.084s-0.017-0.065-0.015-0.098c0.004-0.069 0.034-0.135 0.084-0.182s0.117-0.075 0.186-0.075c0.033-0.001 0.067 0.006 0.098 0.019s0.059 0.032 0.082 0.056c0.023 0.024 0.041 0.053 0.053 0.084s0.017 0.065 0.015 0.098z"></path>
<path fill="#263238" style="fill: var(--color1, #263238)" d="M18.295 16.684c-0.004 0.069-0.034 0.134-0.085 0.182s-0.117 0.075-0.186 0.076c-0.033 0-0.067-0.006-0.097-0.019s-0.059-0.032-0.082-0.056-0.041-0.053-0.053-0.084c-0.012-0.031-0.017-0.065-0.015-0.098 0.004-0.069 0.034-0.135 0.084-0.182s0.117-0.075 0.186-0.075c0.033-0 0.067 0.006 0.097 0.019s0.059 0.032 0.082 0.056 0.041 0.053 0.053 0.084c0.012 0.031 0.017 0.065 0.015 0.098z"></path>
<path fill="#263238" style="fill: var(--color1, #263238)" d="M19.453 16.684c-0.004 0.069-0.034 0.134-0.084 0.182s-0.116 0.075-0.186 0.076c-0.033 0-0.067-0.006-0.098-0.019s-0.059-0.032-0.082-0.056c-0.023-0.024-0.041-0.053-0.053-0.084s-0.017-0.065-0.015-0.098c0.004-0.069 0.034-0.135 0.084-0.182s0.117-0.075 0.186-0.075c0.033-0 0.067 0.006 0.097 0.019s0.059 0.032 0.082 0.056 0.041 0.053 0.053 0.084c0.012 0.031 0.017 0.065 0.015 0.098z"></path>
<path fill="#263238" style="fill: var(--color1, #263238)" d="M20.614 16.684c-0.004 0.069-0.034 0.134-0.084 0.182s-0.117 0.075-0.186 0.075c-0.033 0-0.067-0.007-0.097-0.020s-0.059-0.032-0.082-0.056c-0.023-0.024-0.041-0.053-0.053-0.084s-0.017-0.065-0.016-0.098c0.004-0.069 0.034-0.134 0.085-0.182s0.117-0.075 0.186-0.076c0.033-0 0.067 0.006 0.097 0.019s0.059 0.032 0.082 0.056 0.041 0.053 0.053 0.084c0.012 0.031 0.017 0.065 0.015 0.098z"></path>
<path fill="#263238" style="fill: var(--color1, #263238)" d="M21.77 16.684c-0.004 0.069-0.034 0.134-0.085 0.182s-0.117 0.075-0.186 0.076c-0.033 0-0.066-0.007-0.097-0.020s-0.059-0.032-0.082-0.056c-0.023-0.024-0.041-0.053-0.053-0.084s-0.017-0.065-0.016-0.098c0.004-0.069 0.034-0.134 0.085-0.182s0.117-0.075 0.186-0.076c0.033-0 0.067 0.006 0.097 0.019s0.059 0.032 0.082 0.056 0.041 0.053 0.053 0.084c0.012 0.031 0.017 0.065 0.015 0.098z"></path>
<path fill="#263238" style="fill: var(--color1, #263238)" d="M22.933 16.684c-0.004 0.069-0.034 0.134-0.085 0.182s-0.117 0.075-0.186 0.076c-0.033 0-0.067-0.006-0.098-0.019s-0.059-0.032-0.082-0.056c-0.023-0.024-0.041-0.053-0.053-0.084s-0.017-0.065-0.015-0.098c0.004-0.069 0.034-0.135 0.084-0.182s0.117-0.075 0.186-0.075c0.033-0 0.067 0.006 0.097 0.019s0.059 0.032 0.082 0.056 0.041 0.053 0.053 0.084c0.012 0.031 0.017 0.065 0.015 0.098z"></path>
<path fill="#4caf4f" style="fill: var(--color2, #4caf4f)" d="M22.757 6.188c0.36-0.352 0.379-0.915 0.043-1.259s-0.9-0.337-1.259 0.014c-0.36 0.352-0.379 0.915-0.043 1.259s0.9 0.337 1.259-0.014z"></path>
<path fill="#4caf4f" style="fill: var(--color2, #4caf4f)" d="M23.838 7.595c-0.214 0.28-0.489 0.508-0.805 0.665s-0.663 0.24-1.016 0.243c-0.342 0.003-0.68-0.078-0.983-0.237s-0.563-0.389-0.756-0.671c0.417-0.416 1.078-0.687 1.81-0.687s1.369 0.271 1.75 0.687z"></path>
<path fill="#fff" style="fill: var(--color4, #fff)" opacity="0.1" d="M22.757 6.188c0.36-0.352 0.379-0.915 0.043-1.259s-0.9-0.337-1.259 0.014c-0.36 0.352-0.379 0.915-0.043 1.259s0.9 0.337 1.259-0.014z"></path>
<path fill="#fff" style="fill: var(--color4, #fff)" opacity="0.1" d="M23.838 7.595c-0.214 0.28-0.489 0.508-0.805 0.665s-0.663 0.24-1.016 0.243c-0.342 0.003-0.68-0.078-0.983-0.237s-0.563-0.389-0.756-0.671c0.417-0.416 1.078-0.687 1.81-0.687s1.369 0.271 1.75 0.687z"></path>
<path fill="#e58a7b" style="fill: var(--color11, #e58a7b)" d="M11.201 13.523c-0.082 0.179-0.168 0.375-0.242 0.566s-0.151 0.387-0.217 0.583c-0.135 0.386-0.238 0.782-0.307 1.185l-0.019 0.126c-0.002 0.022 0 0.043 0.006 0.064 0.020 0.071 0.052 0.139 0.095 0.199 0.11 0.157 0.238 0.301 0.381 0.429 0.151 0.14 0.309 0.273 0.474 0.396 0.165 0.127 0.338 0.251 0.509 0.368l-0.161 0.302c-0.408-0.178-0.796-0.4-1.155-0.662-0.192-0.14-0.365-0.304-0.515-0.488-0.089-0.11-0.159-0.234-0.205-0.367-0.027-0.083-0.041-0.17-0.041-0.258 0-0.021 0-0.051 0-0.065v-0.042l0.009-0.086c0.049-0.447 0.143-0.889 0.281-1.318 0.067-0.211 0.138-0.422 0.22-0.627s0.166-0.406 0.27-0.615l0.619 0.308z"></path>
<path fill="#e58a7b" style="fill: var(--color11, #e58a7b)" d="M11.759 17.387l0.607-0.307-0.157 0.666c0 0-0.417 0.117-0.61-0.086l0.16-0.273z"></path>
<path fill="#e58a7b" style="fill: var(--color11, #e58a7b)" d="M12.922 17.188l-0.161 0.551-0.551 0.006 0.157-0.666 0.556 0.109z"></path>
<path fill="#df5753" style="fill: var(--color14, #df5753)" d="M13.779 10.307c0.033 0.119 0.078 0.234 0.135 0.344-0.017 0.019-0.038 0.033-0.062 0.041s-0.050 0.009-0.074 0.003l0.002-0.387z"></path>
<path fill="#263238" style="fill: var(--color1, #263238)" d="M13.761 10.312c0.036 0 0.064-0.044 0.064-0.099s-0.029-0.099-0.064-0.099c-0.036 0-0.064 0.044-0.064 0.099s0.029 0.099 0.064 0.099z"></path>
<path fill="#263238" style="fill: var(--color1, #263238)" d="M13.743 10.118l0.131-0.037c0 0-0.064 0.101-0.131 0.037z"></path>
<path fill="#e58a7b" style="fill: var(--color11, #e58a7b)" d="M12.102 10.937c0.078 0.399 0.156 1.132-0.124 1.399 0 0 0.11 0.405 0.853 0.405 0.817 0 0.39-0.405 0.39-0.405-0.446-0.107-0.435-0.437-0.356-0.748l-0.763-0.651z"></path>
<path fill="#e58a7b" style="fill: var(--color11, #e58a7b)" d="M11.885 10.027c0.041 0.667 0.045 0.951 0.381 1.294 0.508 0.515 1.318 0.319 1.477-0.344 0.143-0.601 0.052-1.591-0.601-1.856-0.143-0.059-0.3-0.081-0.454-0.063s-0.301 0.075-0.427 0.166-0.227 0.212-0.292 0.353c-0.066 0.14-0.095 0.296-0.084 0.45z"></path>
<path fill="#263238" style="fill: var(--color1, #263238)" d="M11.951 9.276c-0.335 0.122-0.782 0.031-0.606 1.064 0.186 1.094-0.1 1.454-0.1 1.454s1.27 0.271 2.567-0.016c0 0-0.396-0.692-0.285-1.202 0.142-0.644 0.030-0.882 0.030-0.882s-1.135-0.589-1.606-0.417z"></path>
<path fill="#e58a7b" style="fill: var(--color11, #e58a7b)" d="M13.368 10.375c0 0.127 0.037 0.251 0.105 0.358 0.091 0.139 0.198 0.086 0.225-0.062 0.024-0.13 0.006-0.359-0.11-0.448s-0.218-0.002-0.22 0.152z"></path>
<path fill="#263238" style="fill: var(--color1, #263238)" d="M11.66 9.389c-0.096-0.271 0.363-0.687 1.333-0.515s1.013 0.98 1.013 0.98l-0.196-0.234 0.009 0.246-0.997 0.191-1.161-0.668z"></path>
<path fill="#4caf4f" style="fill: var(--color2, #4caf4f)" d="M11.742 12.382c-0.006-0.039 0.004-0.079 0.027-0.111s0.058-0.054 0.097-0.060c0.302-0.050 0.989-0.151 1.335-0.103 0.258 0.036 0.325 0.185 0.336 0.308 0.002 0.021-0.001 0.043-0.008 0.063s-0.019 0.039-0.034 0.054c-0.015 0.015-0.033 0.028-0.053 0.035s-0.042 0.011-0.063 0.010l-1.493-0.067c-0.035-0.002-0.069-0.016-0.095-0.039s-0.043-0.056-0.049-0.090z"></path>
<path fill="#000" style="fill: var(--color6, #000)" opacity="0.6" d="M11.742 12.382c-0.006-0.039 0.004-0.079 0.027-0.111s0.058-0.054 0.097-0.060c0.302-0.050 0.989-0.151 1.335-0.103 0.258 0.036 0.325 0.185 0.336 0.308 0.002 0.021-0.001 0.043-0.008 0.063s-0.019 0.039-0.034 0.054c-0.015 0.015-0.033 0.028-0.053 0.035s-0.042 0.011-0.063 0.010l-1.493-0.067c-0.035-0.002-0.069-0.016-0.095-0.039s-0.043-0.056-0.049-0.090z"></path>
<path fill="#e58a7b" style="fill: var(--color11, #e58a7b)" d="M12.605 27.387l0.554 0.385 0.927-1.257-0.554-0.384-0.927 1.256z"></path>
<path fill="#e58a7b" style="fill: var(--color11, #e58a7b)" d="M11.313 27.362l0.585 0.333 0.82-1.329-0.585-0.333-0.82 1.329z"></path>
<path fill="#cf6f64" style="fill: var(--color13, #cf6f64)" d="M14.085 26.515l-0.478 0.648-0.554-0.384 0.478-0.648 0.554 0.384z"></path>
<path fill="#cf6f64" style="fill: var(--color13, #cf6f64)" d="M12.133 26.034l0.586 0.334-0.423 0.685-0.586-0.334 0.423-0.685z"></path>
<path fill="#4caf4f" style="fill: var(--color2, #4caf4f)" d="M13.073 16.577c0 0 2.163 2.725 1.756 5.332-0.327 2.105-2.225 4.956-2.225 4.956l-0.892-0.443c0.629-1.26 1.166-2.565 1.606-3.903 0.136-0.415 0.175-0.856 0.116-1.289s-0.217-0.847-0.459-1.21c-1.096-1.6-2.852-0.648-1.671-3.442h1.769z"></path>
<path fill="#000" style="fill: var(--color6, #000)" opacity="0.6" d="M13.073 16.577c0 0 2.163 2.725 1.756 5.332-0.327 2.105-2.225 4.956-2.225 4.956l-0.892-0.443c0.629-1.26 1.166-2.565 1.606-3.903 0.136-0.415 0.175-0.856 0.116-1.289s-0.217-0.847-0.459-1.21c-1.096-1.6-2.852-0.648-1.671-3.442h1.769z"></path>
<path fill="#000" style="fill: var(--color6, #000)" opacity="0.4" d="M14.133 18.327l-0.314-0.313c0 0.025 0.609 3.784 0.78 4.841 0.101-0.309 0.178-0.624 0.231-0.945 0.201-1.279-0.219-2.585-0.697-3.583z"></path>
<path fill="#4caf4f" style="fill: var(--color2, #4caf4f)" d="M14.038 16.577c0 0 2.604 3.425 2.678 5.479 0.061 1.718-2.834 5.046-2.834 5.046l-0.842-0.545c0 0 1.695-2.364 2.122-4.295-0.165-1.914-3.652-5.686-3.652-5.686h2.529z"></path>
<path fill="#000" style="fill: var(--color6, #000)" opacity="0.6" d="M14.038 16.577c0 0 2.604 3.425 2.678 5.479 0.061 1.718-2.834 5.046-2.834 5.046l-0.842-0.545c0 0 1.695-2.364 2.122-4.295-0.165-1.914-3.652-5.686-3.652-5.686h2.529z"></path>
<path fill="#4caf4f" style="fill: var(--color2, #4caf4f)" d="M10.816 12.489c-0.278 0.066-0.545 1.078-0.545 1.078l1.088 0.727c0 0 0.363-0.8 0.235-1.151-0.131-0.365-0.429-0.737-0.778-0.654z"></path>
<path fill="#000" style="fill: var(--color6, #000)" opacity="0.2" d="M11.029 13.141l-0.076 0.882 0.405 0.271c0.112-0.252 0.194-0.515 0.246-0.785l-0.575-0.368z"></path>
<path fill="#4caf4f" style="fill: var(--color2, #4caf4f)" d="M14.36 12.509c0 0 0.321 0.112-0.322 4.067h-2.736c0.046-1.117 0.047-1.804-0.485-4.087 0.383-0.079 0.772-0.13 1.162-0.153 0.414-0.030 0.829-0.030 1.243 0 0.534 0.049 1.139 0.173 1.139 0.173z"></path>
<path fill="#e58a7b" style="fill: var(--color11, #e58a7b)" d="M14.638 13.141c0.062 0.172 0.127 0.356 0.196 0.534s0.134 0.361 0.204 0.541l0.21 0.539 0.053 0.135 0.028 0.067 0.013 0.033c0 0.006 0 0.006 0 0.005-0.016-0.022-0.036-0.040-0.060-0.053-0.034-0.020-0.072-0.031-0.112-0.034-0.033-0.001-0.065 0.005-0.095 0.018-0.040 0.018-0.040 0.026-0.039 0.025 0.007-0.006 0.014-0.012 0.019-0.020 0.048-0.062 0.089-0.129 0.123-0.2 0.040-0.079 0.079-0.163 0.118-0.248 0.076-0.172 0.145-0.35 0.215-0.529s0.136-0.361 0.2-0.544l0.196-0.548 0.331 0.086c-0.065 0.392-0.149 0.773-0.251 1.161-0.049 0.193-0.107 0.385-0.172 0.578-0.033 0.097-0.069 0.193-0.11 0.292-0.043 0.107-0.096 0.21-0.158 0.308-0.023 0.033-0.048 0.064-0.076 0.093-0.044 0.047-0.097 0.085-0.156 0.111-0.053 0.022-0.11 0.033-0.167 0.031-0.064-0.002-0.126-0.021-0.181-0.054-0.065-0.040-0.118-0.096-0.156-0.162-0.013-0.022-0.024-0.045-0.032-0.061l-0.016-0.033-0.033-0.067-0.065-0.133c-0.086-0.179-0.172-0.359-0.247-0.54s-0.154-0.365-0.228-0.55c-0.074-0.185-0.14-0.369-0.203-0.569l0.651-0.213z"></path>
<path fill="#4caf4f" style="fill: var(--color2, #4caf4f)" d="M14.36 12.509c0.329 0.078 0.699 1.050 0.699 1.050l-0.978 0.832c0 0-0.633-1.060-0.505-1.409 0.133-0.364 0.355-0.575 0.784-0.473z"></path>
<path fill="#e58a7b" style="fill: var(--color11, #e58a7b)" d="M16.062 12.556l0.344-0.287 0.239 0.372-0.176 0.31c0 0-0.28 0.258-0.527 0.126-0.039-0.088-0.049-0.187-0.027-0.281s0.074-0.178 0.148-0.24z"></path>
<path fill="#e58a7b" style="fill: var(--color11, #e58a7b)" d="M17.025 12.27l-0.026 0.094-0.544 0.091-0.053-0.185 0.623 0.001z"></path>
<path fill="#4caf4f" style="fill: var(--color2, #4caf4f)" d="M13.949 27.146l-0.981-0.634 0.176-0.306 1.102 0.678-0.297 0.262z"></path>
<path fill="#263238" style="fill: var(--color1, #263238)" d="M12.282 27.651c-0.086-0.011-0.169-0.040-0.242-0.086-0.003-0.001-0.006-0.003-0.008-0.006s-0.003-0.006-0.003-0.009c0-0.003 0.001-0.006 0.003-0.009s0.004-0.005 0.008-0.006c0.027-0.009 0.258-0.080 0.325-0.025 0.008 0.006 0.013 0.014 0.017 0.024s0.004 0.019 0.002 0.029c-0.001 0.015-0.006 0.030-0.015 0.043s-0.020 0.023-0.034 0.031c-0.016 0.009-0.034 0.014-0.052 0.014zM12.089 27.556c0.107 0.055 0.193 0.075 0.234 0.054 0.009-0.005 0.017-0.012 0.022-0.021s0.008-0.019 0.009-0.029c0-0.014 0-0.020-0.008-0.023-0.036-0.029-0.165-0.007-0.259 0.019h0.002z"></path>
<path fill="#263238" style="fill: var(--color1, #263238)" d="M12.046 27.571c-0.005-0-0.009-0.002-0.012-0.005-0.001-0.002-0.002-0.005-0.002-0.008s0.001-0.005 0.002-0.008c0-0.008 0.056-0.194 0.143-0.236 0.011-0.005 0.023-0.008 0.036-0.008s0.024 0.003 0.036 0.008c0.012 0.004 0.022 0.011 0.030 0.022s0.011 0.023 0.010 0.035c-0.006 0.077-0.163 0.184-0.235 0.202l-0.007-0.003zM12.213 27.336c-0.008 0-0.017 0.002-0.024 0.006-0.053 0.026-0.097 0.126-0.119 0.187 0.076-0.032 0.18-0.116 0.183-0.163 0-0.008 0-0.017-0.020-0.026-0.006-0.003-0.013-0.006-0.021-0.007v0.003z"></path>
<path fill="#263238" style="fill: var(--color1, #263238)" d="M13.508 28.022c-0.097 0-0.232-0.125-0.306-0.201-0.002-0.003-0.003-0.006-0.003-0.009s0.001-0.006 0.003-0.009c0.002-0.003 0.004-0.005 0.007-0.007s0.006-0.002 0.009-0.002c0.034 0 0.332 0.045 0.374 0.129 0.004 0.008 0.007 0.016 0.007 0.025s-0.002 0.017-0.007 0.025c-0.006 0.013-0.016 0.024-0.028 0.033s-0.026 0.014-0.040 0.015l-0.017 0.001zM13.259 27.833c0.108 0.105 0.204 0.163 0.258 0.156 0.009-0.001 0.018-0.005 0.026-0.010s0.014-0.013 0.018-0.021c0.002-0.003 0.003-0.006 0.003-0.010s-0.001-0.007-0.003-0.010c-0.022-0.046-0.181-0.086-0.302-0.105z"></path>
<path fill="#263238" style="fill: var(--color1, #263238)" d="M13.268 27.829c-0.019 0.001-0.039-0.001-0.058-0.004-0.003-0-0.005-0.001-0.007-0.003s-0.004-0.004-0.005-0.006c-0.001-0.003-0.002-0.005-0.002-0.008s0.001-0.006 0.002-0.008c0.005-0.006 0.121-0.146 0.231-0.155 0.031-0.002 0.062 0.007 0.086 0.027 0.034 0.029 0.032 0.055 0.023 0.071-0.021 0.058-0.17 0.087-0.271 0.087zM13.246 27.797c0.096 0.005 0.25-0.027 0.27-0.069 0 0 0.007-0.014-0.015-0.033-0.009-0.008-0.019-0.014-0.030-0.017s-0.023-0.005-0.035-0.003c-0.074 0.021-0.14 0.064-0.189 0.123v-0.001z"></path>
<path fill="#4caf4f" style="fill: var(--color2, #4caf4f)" d="M12.069 27.478l-0.728-0.206c-0.013-0.004-0.026-0.003-0.038 0.003s-0.021 0.015-0.026 0.027l-0.246 0.552c-0.006 0.014-0.008 0.029-0.008 0.045s0.004 0.030 0.011 0.044c0.007 0.014 0.016 0.026 0.028 0.036s0.025 0.017 0.040 0.021c0.258 0.067 0.381 0.086 0.702 0.178 0.198 0.055 0.479 0.157 0.752 0.234s0.363-0.188 0.258-0.245c-0.478-0.253-0.515-0.43-0.646-0.619-0.023-0.034-0.058-0.059-0.098-0.070z"></path>
<path fill="#4caf4f" style="fill: var(--color2, #4caf4f)" d="M13.222 27.72l-0.622-0.43c-0.011-0.008-0.024-0.011-0.037-0.010s-0.025 0.007-0.034 0.017l-0.412 0.443c-0.010 0.011-0.018 0.025-0.022 0.040s-0.006 0.030-0.004 0.045c0.002 0.015 0.007 0.030 0.015 0.043s0.019 0.024 0.031 0.033c0.219 0.147 0.332 0.206 0.606 0.396 0.172 0.117 0.504 0.376 0.736 0.538s0.405-0.060 0.322-0.148c-0.369-0.394-0.45-0.642-0.511-0.866-0.011-0.041-0.035-0.076-0.070-0.1z"></path>
<path fill="#4caf4f" style="fill: var(--color2, #4caf4f)" d="M12.718 26.922l-1.121-0.557 0.116-0.304 1.197 0.587-0.192 0.274z"></path>
<path fill="#4caf4f" style="fill: var(--color2, #4caf4f)" d="M11.26 16.415l-0.094 0.247c-0.010 0.019 0.013 0.039 0.045 0.039h2.841c0.025 0 0.046-0.012 0.047-0.027l0.024-0.246c0-0.016-0.020-0.031-0.046-0.031h-2.772c-0.008-0.001-0.017 0-0.024 0.004s-0.015 0.008-0.020 0.014z"></path>
<path fill="#fff" style="fill: var(--color4, #fff)" opacity="0.4" d="M11.26 16.415l-0.094 0.247c-0.010 0.019 0.013 0.039 0.045 0.039h2.841c0.025 0 0.046-0.012 0.047-0.027l0.024-0.246c0-0.016-0.020-0.031-0.046-0.031h-2.772c-0.008-0.001-0.017 0-0.024 0.004s-0.015 0.008-0.020 0.014z"></path>
<path fill="#4caf4f" style="fill: var(--color2, #4caf4f)" d="M11.708 16.726h-0.075c-0.015 0-0.026-0.008-0.025-0.017l0.035-0.319c0-0.009 0.014-0.016 0.028-0.016h0.075c0.015 0 0.026 0.008 0.025 0.016l-0.035 0.319c-0.001 0.009-0.014 0.017-0.028 0.017z"></path>
<path fill="#4caf4f" style="fill: var(--color2, #4caf4f)" d="M13.46 16.726h-0.074c-0.015 0-0.026-0.008-0.025-0.017l0.034-0.319c0-0.009 0.015-0.016 0.029-0.016h0.074c0.015 0 0.027 0.008 0.025 0.016l-0.034 0.319c-0.004 0.009-0.014 0.017-0.029 0.017z"></path>
<path fill="#f5f5f5" style="fill: var(--color10, #f5f5f5)" d="M11.643 31.271c1.271 0 2.301-0.075 2.301-0.167s-1.030-0.167-2.301-0.167c-1.271 0-2.301 0.075-2.301 0.167s1.030 0.167 2.301 0.167z"></path>
<path fill="#e0e0e0" style="fill: var(--color7, #e0e0e0)" d="M13.044 30.869c-0.407-0.119-0.859-0.271-1.132-0.43-0.008-0.005-0.016-0.008-0.024-0.012v-1.843h0.824c0.063-0.004 0.121-0.031 0.164-0.077s0.067-0.106 0.067-0.168-0.024-0.123-0.067-0.168c-0.043-0.046-0.102-0.073-0.164-0.077h-0.819v-8.402h-0.495v8.402h-0.819c-0.033-0.002-0.067 0.003-0.098 0.014s-0.060 0.029-0.085 0.052c-0.024 0.023-0.044 0.051-0.057 0.081s-0.020 0.064-0.020 0.097 0.007 0.067 0.020 0.097c0.013 0.031 0.033 0.058 0.057 0.081s0.053 0.041 0.085 0.052c0.031 0.011 0.065 0.016 0.098 0.014h0.819v1.841c-0.008 0-0.015 0.007-0.023 0.012-0.277 0.161-0.726 0.313-1.133 0.429-0.028 0.008-0.051 0.026-0.067 0.050s-0.022 0.053-0.018 0.082c0.004 0.028 0.018 0.054 0.040 0.073s0.049 0.030 0.078 0.030h2.736c0.027-0.002 0.053-0.013 0.074-0.032s0.033-0.044 0.037-0.071c0.004-0.027-0.002-0.055-0.016-0.079s-0.036-0.042-0.062-0.051z"></path>
<path fill="#4caf4f" style="fill: var(--color2, #4caf4f)" d="M13.17 18.837h-3.054c-0.246 0-0.445 0.199-0.445 0.445v0.908c0 0.246 0.199 0.445 0.445 0.445h3.054c0.246 0 0.445-0.199 0.445-0.445v-0.908c0-0.246-0.199-0.445-0.445-0.445z"></path>
<path fill="#4caf4f" style="fill: var(--color2, #4caf4f)" d="M10.088 20.635v0.156c0 0.129 0.14 0.234 0.312 0.234h2.491c0.172 0 0.312-0.105 0.312-0.234v-0.156h-3.114z"></path>
<path fill="#fff" style="fill: var(--color4, #fff)" opacity="0.3" d="M10.088 20.635v0.156c0 0.129 0.14 0.234 0.312 0.234h2.491c0.172 0 0.312-0.105 0.312-0.234v-0.156h-3.114z"></path>
</symbol>
<symbol id="icon-peop" viewBox="0 0 32 32">
<path stroke-linejoin="miter" stroke-linecap="butt" stroke-miterlimit="4" stroke-width="0.6667" d="M11 5.824c1.573 0 3.107 0.484 4.396 1.385s2.268 2.177 2.807 3.654c0.539 1.477 0.611 3.085 0.205 4.604s-1.269 2.877-2.472 3.889l-0.405 0.341 0.482 0.218c1.982 0.897 3.688 2.308 4.94 4.088l0.005 0.007 0.005 0.007c0.097 0.125 0.168 0.268 0.208 0.421s0.049 0.312 0.026 0.469c-0.023 0.156-0.078 0.306-0.161 0.441s-0.192 0.251-0.322 0.342c-0.129 0.091-0.276 0.155-0.43 0.187s-0.314 0.034-0.469 0.003c-0.155-0.031-0.302-0.094-0.432-0.183s-0.241-0.204-0.326-0.338l-0.004-0.007-0.005-0.007-0.174-0.24c-0.885-1.183-2.026-2.153-3.339-2.835-1.401-0.728-2.956-1.108-4.535-1.108s-3.134 0.38-4.535 1.108c-1.401 0.728-2.605 1.783-3.512 3.075l-0.001 0.001c-0.107 0.153-0.249 0.278-0.415 0.365s-0.349 0.131-0.536 0.13h-0.003c-0.239 0.001-0.473-0.074-0.667-0.213l-0.001-0.001-0.091-0.072c-0.203-0.175-0.34-0.416-0.386-0.682-0.053-0.304 0.017-0.618 0.195-0.87 1.252-1.779 2.958-3.19 4.94-4.087l0.482-0.218-0.405-0.341c-1.203-1.012-2.066-2.37-2.472-3.889s-0.334-3.127 0.205-4.604c0.539-1.477 1.519-2.753 2.807-3.654s2.823-1.385 4.395-1.385zM19.11 6.122h0.001l0.006-0.001c0.673-0.192 1.37-0.289 2.070-0.288h0.002c1.573-0.005 3.11 0.476 4.4 1.376s2.272 2.176 2.812 3.654c0.539 1.478 0.61 3.086 0.203 4.606s-1.273 2.877-2.48 3.887l-0.407 0.341 0.483 0.219c1.982 0.897 3.688 2.308 4.94 4.088l0.001 0.002c0.089 0.124 0.152 0.266 0.186 0.415s0.039 0.304 0.012 0.454c-0.026 0.151-0.082 0.294-0.165 0.423s-0.189 0.24-0.315 0.328l-0.004 0.003c-0.195 0.139-0.428 0.213-0.667 0.212-0.187-0.001-0.371-0.046-0.537-0.132-0.125-0.065-0.236-0.152-0.329-0.255l-0.088-0.109c-0.909-1.289-2.114-2.342-3.514-3.069s-2.955-1.108-4.533-1.109h-0.001c-0.309 0-0.606-0.122-0.825-0.341s-0.342-0.516-0.342-0.826c0-0.309 0.123-0.606 0.342-0.825s0.516-0.342 0.825-0.342c1.415 0 2.771-0.562 3.772-1.562s1.562-2.357 1.562-3.771c-0-1.414-0.562-2.771-1.562-3.771s-2.357-1.563-3.772-1.563c-0.487-0.001-0.973 0.067-1.441 0.201l-0.004 0.001c-0.148 0.044-0.304 0.058-0.458 0.042s-0.303-0.063-0.438-0.138-0.255-0.175-0.352-0.296c-0.096-0.121-0.167-0.261-0.209-0.41s-0.054-0.305-0.035-0.458c0.019-0.154 0.068-0.302 0.145-0.436s0.179-0.252 0.302-0.346c0.123-0.094 0.263-0.164 0.412-0.203zM12.040 8.269c-1.035-0.206-2.107-0.1-3.081 0.303s-1.807 1.087-2.393 1.964c-0.586 0.877-0.899 1.908-0.899 2.963 0 1.414 0.562 2.771 1.562 3.771s2.357 1.562 3.771 1.562c1.055 0 2.086-0.312 2.963-0.898s1.561-1.419 1.965-2.394c0.404-0.974 0.509-2.047 0.303-3.081s-0.714-1.985-1.46-2.73c-0.746-0.746-1.697-1.254-2.731-1.46z"></path>
</symbol>
<symbol id="icon-group" viewBox="0 0 36 32">
<path d="M22.732 15.621c-0.257 0-0.495-0.071-0.707-0.184v0.003c0 0.404-0.157 0.784-0.442 1.068s-0.664 0.442-1.068 0.442c-0.261 0-0.502-0.072-0.716-0.189-0.022 0.37-0.169 0.715-0.433 0.979-0.285 0.285-0.664 0.442-1.068 0.442-0.802 0-1.454-0.631-1.501-1.421-0.248 0.134-0.529 0.204-0.819 0.186-0.789-0.052-1.408-0.734-1.408-1.553v-6.791l-0.773 1.34c-0.294 0.512-0.846 0.831-1.439 0.831-0.289 0-0.575-0.076-0.828-0.221-0.315-0.183-0.54-0.476-0.634-0.827s-0.046-0.718 0.137-1.033c0 0 2.53-4.381 2.684-4.65 0.018-0.040 0.071-0.158 0.115-0.258 0.043-0.095 0.079-0.194 0.114-0.292 0.763-2.154 2.652-3.492 4.93-3.492 2.959 0 5.366 2.61 5.366 5.818l0 8.293c0 0.404-0.157 0.783-0.442 1.068s-0.664 0.442-1.068 0.442l0-0zM18.876 0.802c-1.958 0-3.518 1.106-4.174 2.958-0.042 0.118-0.086 0.235-0.137 0.35-0.148 0.332-0.148 0.332-0.19 0.38l-0.006-0.005c-0.207 0.39-0.82 1.453-2.643 4.608-0.075 0.129-0.095 0.28-0.057 0.423s0.131 0.265 0.26 0.339c0.399 0.229 0.944 0.081 1.172-0.315l1.523-2.636c0.091-0.157 0.275-0.234 0.451-0.186 0.175 0.047 0.297 0.206 0.297 0.388v8.287c0 0.391 0.295 0.729 0.658 0.752 0.209 0.011 0.404-0.059 0.551-0.205 0.133-0.133 0.206-0.311 0.206-0.5v-5.42c0-0.222 0.18-0.401 0.401-0.401s0.401 0.179 0.401 0.401l-0 6.652c0 0.39 0.317 0.707 0.707 0.707 0.189 0 0.367-0.073 0.501-0.207s0.206-0.311 0.206-0.501v-6.652c0-0.222 0.179-0.401 0.401-0.401s0.401 0.179 0.401 0.401l-0 5.358v0.062c0 0.39 0.317 0.707 0.708 0.707 0.189 0 0.367-0.074 0.501-0.207 0.133-0.133 0.206-0.31 0.206-0.5v-5.42c0-0.222 0.18-0.401 0.401-0.401s0.401 0.179 0.401 0.401l-0 4.091c0 0.39 0.317 0.708 0.707 0.708 0.19 0 0.367-0.074 0.5-0.207s0.207-0.312 0.207-0.501l0-8.293c0-2.766-2.047-5.016-4.563-5.016v-0z"></path>
<path d="M6.964 21.385l5.824-3.494c0.702-0.422 1.606-0.242 2.056 0.408 0.164 0.237 0.248 0.513 0.261 0.794 0.217-0.113 0.453-0.175 0.694-0.175 0.123 0 0.247 0.015 0.369 0.046 0.391 0.098 0.721 0.342 0.928 0.688s0.268 0.752 0.17 1.143c-0.090 0.362-0.31 0.666-0.616 0.875 0.214 0.126 0.398 0.298 0.529 0.517 0.208 0.346 0.268 0.752 0.171 1.143s-0.342 0.721-0.689 0.928l-0.002 0.001c0.21 0.126 0.391 0.296 0.521 0.512 0.208 0.346 0.268 0.752 0.171 1.143s-0.343 0.721-0.688 0.928l-7.111 4.266c-1.327 0.796-2.861 1.071-4.319 0.773-1.471-0.301-2.689-1.146-3.43-2.381-1.172-1.954-0.997-4.262 0.458-6.024 0.067-0.080 0.132-0.162 0.192-0.247 0.063-0.090 0.137-0.195 0.162-0.231 0.151-0.269 2.607-4.694 2.607-4.694 0.248-0.448 0.713-0.701 1.192-0.701 0.224 0 0.451 0.055 0.66 0.171 0.253 0.141 0.465 0.347 0.614 0.595 0.305 0.509 0.316 1.146 0.029 1.661l-0.751 1.353zM6.999 18.783c-0.078-0.13-0.185-0.233-0.316-0.307-0.271-0.15-0.611-0.052-0.76 0.217-1.758 3.166-2.357 4.246-2.588 4.63l0.005 0.001c-0.019 0.064-0.019 0.064-0.231 0.367-0.072 0.102-0.15 0.201-0.23 0.297-1.251 1.515-1.396 3.422-0.389 5.101 0.624 1.040 1.655 1.753 2.903 2.008 1.262 0.257 2.592 0.018 3.746-0.675l7.112-4.266c0.162-0.097 0.277-0.252 0.323-0.435s0.017-0.373-0.080-0.536c-0.201-0.334-0.636-0.444-0.97-0.243l-3.508 2.105c-0.19 0.114-0.437 0.053-0.551-0.137s-0.052-0.436 0.137-0.551l4.648-2.788c0.162-0.098 0.277-0.252 0.323-0.435s0.017-0.374-0.080-0.536c-0.201-0.334-0.636-0.443-0.97-0.243l-4.648 2.788c-0.19 0.114-0.436 0.053-0.551-0.137s-0.052-0.437 0.137-0.551l5.704-3.422c0.162-0.098 0.277-0.252 0.323-0.435s0.017-0.373-0.080-0.535c-0.097-0.162-0.252-0.277-0.435-0.322s-0.374-0.017-0.535 0.080l-1.056 0.634c-0 0-0 0-0.001 0h-0l-4.648 2.788c-0.191 0.115-0.437 0.053-0.551-0.137s-0.052-0.437 0.137-0.551l4.648-2.788c0.162-0.098 0.277-0.252 0.323-0.435 0.050-0.201 0.012-0.406-0.107-0.578-0.207-0.299-0.648-0.378-0.983-0.177l-7.106 4.263c-0.156 0.093-0.355 0.070-0.485-0.056s-0.16-0.324-0.072-0.483l1.478-2.662c0.148-0.266 0.143-0.595-0.016-0.858l0-0z"></path>
<path d="M34.793 29.502c-0.741 1.235-1.959 2.081-3.43 2.381-1.458 0.297-2.992 0.023-4.319-0.773l-7.111-4.266c-0.346-0.208-0.591-0.537-0.689-0.929s-0.036-0.797 0.171-1.142c0.129-0.216 0.311-0.387 0.521-0.512l-0.002-0.001c-0.346-0.208-0.591-0.537-0.688-0.928s-0.037-0.797 0.17-1.143c0.134-0.222 0.317-0.396 0.526-0.52-0.304-0.209-0.522-0.512-0.612-0.872-0.098-0.391-0.037-0.797 0.17-1.143s0.537-0.591 0.928-0.688c0.122-0.031 0.246-0.046 0.369-0.046 0.241 0 0.477 0.061 0.694 0.175 0.013-0.281 0.097-0.557 0.261-0.794 0.451-0.65 1.353-0.83 2.056-0.408l5.823 3.493-0.751-1.352c-0.288-0.516-0.277-1.153 0.028-1.662 0.149-0.248 0.361-0.454 0.615-0.596 0.209-0.116 0.435-0.17 0.658-0.17 0.479 0 0.945 0.253 1.192 0.701 0.864 1.556 2.493 4.49 2.608 4.695 0.024 0.035 0.098 0.141 0.161 0.231 0.060 0.085 0.125 0.167 0.192 0.247 1.454 1.763 1.629 4.071 0.457 6.025v-0zM33.716 23.988c-0.080-0.097-0.158-0.196-0.23-0.297-0.217-0.308-0.223-0.316-0.239-0.397-0.254-0.42-0.873-1.535-2.575-4.601-0.149-0.269-0.489-0.367-0.759-0.218-0.133 0.074-0.24 0.178-0.318 0.308-0.158 0.263-0.164 0.592-0.015 0.859l1.477 2.662c0.088 0.159 0.059 0.357-0.072 0.483s-0.329 0.149-0.486 0.056l-7.106-4.263c-0.335-0.201-0.777-0.122-0.984 0.177-0.119 0.172-0.157 0.377-0.107 0.577 0.046 0.183 0.161 0.337 0.323 0.435 0 0 0.001 0.001 0.001 0.001l4.646 2.787c0.19 0.114 0.252 0.36 0.137 0.551s-0.36 0.252-0.551 0.137l-5.704-3.422c-0.162-0.097-0.352-0.126-0.535-0.080s-0.338 0.16-0.435 0.323c-0.098 0.162-0.126 0.352-0.080 0.535s0.161 0.337 0.323 0.435l5.704 3.422c0.19 0.114 0.252 0.36 0.137 0.551s-0.36 0.252-0.551 0.137l-4.647-2.788c-0.334-0.201-0.77-0.092-0.97 0.243-0.098 0.162-0.126 0.353-0.080 0.536s0.161 0.337 0.323 0.435l4.647 2.788c0.19 0.114 0.252 0.36 0.137 0.551s-0.36 0.252-0.551 0.137l-3.508-2.105c-0.162-0.097-0.352-0.126-0.535-0.080s-0.338 0.16-0.435 0.322c-0.097 0.162-0.126 0.353-0.080 0.535s0.161 0.337 0.323 0.435l7.111 4.266c1.154 0.692 2.485 0.932 3.746 0.675 1.248-0.255 2.279-0.968 2.903-2.008 1.008-1.679 0.863-3.586-0.387-5.101h-0z"></path>
</symbol>
</defs>
</svg>
