<svg aria-hidden="true" style="position: absolute; width: 0; height: 0; overflow: hidden;" version="1.1"
    xmlns="http://www.w3.org/2000/svg" xmlns:xlink="http://www.w3.org/1999/xlink">
    <defs>
        <symbol id="icon-youtube" viewBox="0 0 41 32">
            <path fill="#fff" style="fill: var(--color1, #fff)"
                d="M35.812 2.678c1.679 0.461 3 1.818 3.449 3.541 0.815 3.124 0.815 9.641 0.815 9.641s0 6.517-0.815 9.641c-0.449 1.723-1.77 3.080-3.449 3.541-3.042 0.837-15.24 0.837-15.24 0.837s-12.199 0-15.241-0.837c-1.679-0.461-3-1.818-3.449-3.541-0.815-3.124-0.815-9.641-0.815-9.641s0-6.517 0.815-9.641c0.449-1.723 1.771-3.081 3.449-3.541 3.042-0.837 15.241-0.837 15.241-0.837s12.199 0 15.24 0.837zM16.914 10.374v12.19l9.752-6.095-9.752-6.095z">
            </path>
        </symbol>
        <symbol id="icon-twitter" viewBox="0 0 37 32">
            <path fill="#fff" style="fill: var(--color1, #fff)"
                d="M17.19 8.404l0.077 1.265-1.279-0.155c-4.656-0.594-8.723-2.608-12.177-5.992l-1.688-1.679-0.435 1.24c-0.921 2.763-0.333 5.682 1.586 7.644 1.023 1.085 0.793 1.24-0.972 0.594-0.614-0.207-1.151-0.362-1.202-0.284-0.179 0.181 0.435 2.531 0.921 3.461 0.665 1.291 2.021 2.557 3.505 3.306l1.253 0.594-1.484 0.026c-1.433 0-1.484 0.026-1.33 0.568 0.512 1.679 2.533 3.461 4.784 4.235l1.586 0.542-1.381 0.826c-2.046 1.188-4.451 1.859-6.856 1.911-1.151 0.026-2.098 0.129-2.098 0.207 0 0.258 3.121 1.704 4.937 2.273 5.449 1.679 11.921 0.955 16.781-1.911 3.453-2.040 6.907-6.095 8.519-10.020 0.87-2.092 1.739-5.914 1.739-7.748 0-1.188 0.077-1.343 1.509-2.763 0.844-0.826 1.637-1.73 1.791-1.989 0.256-0.491 0.23-0.491-1.074-0.052-2.174 0.775-2.481 0.671-1.407-0.491 0.793-0.826 1.74-2.324 1.74-2.763 0-0.077-0.384 0.052-0.819 0.284-0.46 0.258-1.484 0.646-2.251 0.878l-1.381 0.439-1.253-0.852c-0.691-0.465-1.663-0.981-2.174-1.136-1.305-0.362-3.3-0.31-4.477 0.103-3.198 1.162-5.218 4.158-4.988 7.438z">
            </path>
        </symbol>
        <symbol id="icon-basketball" viewBox="0 0 32 32">
            <path fill="#fff" style="fill: var(--color1, #fff)"
                d="M31.17 15.395c0 1.026-0.104 2.050-0.309 3.049-0.2 0.975-0.496 1.932-0.884 2.847-0.379 0.899-0.85 1.765-1.399 2.573-0.541 0.803-1.165 1.556-1.85 2.242-0.687 0.683-1.442 1.305-2.245 1.849-0.811 0.546-1.678 1.016-2.577 1.397-0.916 0.386-1.876 0.682-2.85 0.882-1 0.206-2.028 0.311-3.056 0.311s-2.056-0.105-3.055-0.311c-0.976-0.2-1.935-0.495-2.851-0.882-0.899-0.381-1.768-0.851-2.578-1.397-0.802-0.544-1.558-1.166-2.243-1.849-0.686-0.686-1.31-1.439-1.852-2.242-0.547-0.808-1.018-1.674-1.399-2.573-0.388-0.915-0.685-1.872-0.886-2.847-0.203-0.999-0.307-2.023-0.307-3.049s0.104-2.053 0.307-3.050c0.201-0.975 0.498-1.934 0.886-2.847 0.381-0.899 0.852-1.766 1.399-2.574 0.542-0.803 1.166-1.555 1.852-2.242 0.685-0.684 1.441-1.304 2.243-1.847 0.81-0.548 1.679-1.018 2.578-1.4 0.916-0.387 1.875-0.684 2.851-0.882 0.999-0.204 2.027-0.308 3.055-0.308s2.056 0.104 3.056 0.308c0.974 0.198 1.933 0.495 2.85 0.882 0.899 0.382 1.767 0.851 2.577 1.4 0.802 0.543 1.558 1.163 2.245 1.847 0.685 0.687 1.309 1.439 1.851 2.242 0.549 0.808 1.020 1.675 1.399 2.574 0.388 0.914 0.684 1.872 0.884 2.847 0.205 0.996 0.309 2.023 0.309 3.050zM10.472 3.694c-3.613 1.704-6.309 5.028-7.15 9.034 0.342 0.003 5.74 0.071 11.961-1.579-2.242-3.978-4.638-7.225-4.811-7.455zM16.356 13.141c-6.671 1.994-13.072 1.851-13.301 1.842-0.004 0.139-0.010 0.274-0.010 0.413 0 3.324 1.256 6.353 3.319 8.644-0.004-0.007 3.541-6.288 10.532-8.545 0.169-0.056 0.341-0.107 0.511-0.155-0.325-0.735-0.68-1.472-1.051-2.198zM24.555 5.686c-2.281-2.008-5.276-3.227-8.556-3.227-1.053 0-2.074 0.127-3.053 0.362 0.194 0.26 2.628 3.484 4.843 7.546 4.889-1.83 6.734-4.635 6.766-4.682zM18.29 17.483c-0.029 0.010-0.058 0.018-0.086 0.028-7.644 2.661-10.14 8.024-10.167 8.082 2.199 1.708 4.958 2.739 7.963 2.739 1.794 0 3.503-0.365 5.058-1.025-0.192-1.13-0.945-5.092-2.768-9.823zM23.239 26.124c2.909-1.96 4.975-5.073 5.551-8.678-0.267-0.086-3.891-1.232-8.073-0.562 1.699 4.663 2.39 8.461 2.522 9.241zM18.787 12.296c0.301 0.617 0.592 1.245 0.861 1.876 0.096 0.226 0.189 0.448 0.28 0.67 4.451-0.559 8.835 0.382 9.023 0.42-0.030-3.067-1.128-5.881-2.946-8.085-0.025 0.035-2.102 3.033-7.218 5.119z">
            </path>
        </symbol>
        <symbol id="icon-insta" viewBox="0 0 32 32">
            <path fill="#fff" style="fill: var(--color1, #fff)"
                d="M16.001 0.246c-4.12 0-4.637 0.018-6.255 0.092-1.615 0.074-2.717 0.33-3.682 0.705-0.998 0.387-1.844 0.906-2.687 1.749s-1.362 1.69-1.751 2.687c-0.376 0.965-0.632 2.068-0.705 3.682-0.072 1.618-0.091 2.136-0.091 6.256s0.018 4.635 0.092 6.254c0.074 1.615 0.33 2.717 0.705 3.682 0.388 0.998 0.906 1.844 1.75 2.687s1.689 1.363 2.686 1.751c0.965 0.375 2.068 0.631 3.683 0.705 1.618 0.074 2.135 0.092 6.255 0.092s4.636-0.018 6.254-0.092c1.615-0.074 2.719-0.33 3.684-0.705 0.997-0.388 1.843-0.907 2.686-1.751 0.844-0.843 1.362-1.69 1.751-2.687 0.373-0.965 0.629-2.068 0.705-3.682 0.073-1.618 0.092-2.134 0.092-6.254s-0.019-4.637-0.092-6.255c-0.076-1.615-0.332-2.717-0.705-3.682-0.389-0.998-0.907-1.844-1.751-2.687s-1.688-1.362-2.686-1.749c-0.967-0.375-2.070-0.631-3.685-0.705-1.618-0.074-2.133-0.092-6.255-0.092h0.005zM14.64 2.98c0.404-0.001 0.855 0 1.361 0 4.051 0 4.531 0.015 6.13 0.087 1.479 0.068 2.282 0.315 2.817 0.522 0.708 0.275 1.213 0.604 1.743 1.135s0.86 1.037 1.135 1.745c0.208 0.534 0.455 1.337 0.522 2.816 0.073 1.599 0.089 2.080 0.089 6.128s-0.016 4.529-0.089 6.128c-0.068 1.479-0.315 2.282-0.522 2.816-0.275 0.708-0.604 1.212-1.135 1.743s-1.035 0.86-1.743 1.135c-0.534 0.209-1.338 0.455-2.817 0.523-1.599 0.073-2.080 0.089-6.13 0.089s-4.531-0.016-6.13-0.089c-1.479-0.068-2.282-0.315-2.817-0.523-0.708-0.275-1.214-0.604-1.745-1.135s-0.86-1.035-1.135-1.744c-0.208-0.534-0.455-1.337-0.522-2.816-0.073-1.599-0.087-2.080-0.087-6.131s0.015-4.529 0.087-6.128c0.068-1.479 0.315-2.282 0.522-2.817 0.275-0.708 0.604-1.214 1.135-1.745s1.037-0.86 1.745-1.135c0.535-0.209 1.338-0.455 2.817-0.523 1.399-0.063 1.942-0.082 4.769-0.085v0.004zM24.099 5.499c-1.005 0-1.82 0.814-1.82 1.82s0.815 1.82 1.82 1.82c1.005 0 1.821-0.815 1.821-1.82s-0.815-1.82-1.821-1.82zM16.001 7.626c-4.302 0-7.791 3.488-7.791 7.791s3.488 7.789 7.791 7.789c4.302 0 7.789-3.487 7.789-7.789s-3.487-7.791-7.789-7.791zM16.001 10.36c2.793 0 5.057 2.264 5.057 5.057s-2.264 5.057-5.057 5.057c-2.793 0-5.057-2.264-5.057-5.057s2.264-5.057 5.057-5.057z">
            </path>
        </symbol>

    </defs>
</svg>